<svg xmlns="http://www.w3.org/2000/svg" xmlns:xlink="http://www.w3.org/1999/xlink" width="53.375" height="38.9" viewBox="0 0 53.375 38.9">
  <defs>
    <clipPath id="clip-path">
      <rect id="Rectangle_1" data-name="Rectangle 1" width="53.375" height="38.9" fill="none" stroke="#425e7a" stroke-width="2"/>
    </clipPath>
  </defs>
  <g id="Group_1" data-name="Group 1" clip-path="url(#clip-path)">
    <path id="Path_2" data-name="Path 2" d="M5.836,20.587h0c-1.841,0-3.336-1.072-3.336-2.393V8.627c0-1.321,1.495-2.391,3.336-2.391s3.336,1.07,3.336,2.391v9.568C9.172,19.515,7.677,20.587,5.836,20.587Z" transform="translate(3.06 7.632)" fill="none" stroke="#425e7a" stroke-linecap="round" stroke-linejoin="round" stroke-width="2"/>
    <path id="Path_3" data-name="Path 3" d="M4.948,15.519C2.413,15.152.5,13.542.5,11.611S2.413,8.073,4.948,7.706" transform="translate(0.612 9.431)" fill="none" stroke="#425e7a" stroke-linecap="round" stroke-linejoin="round" stroke-width="2"/>
    <path id="Path_4" data-name="Path 4" d="M21.836,6.236h0c1.841,0,3.336,1.072,3.336,2.393V18.2c0,1.321-1.495,2.391-3.336,2.391S18.5,19.518,18.5,18.2V8.629C18.5,7.308,19.995,6.236,21.836,6.236Z" transform="translate(22.644 7.632)" fill="none" stroke="#425e7a" stroke-linecap="round" stroke-linejoin="round" stroke-width="2"/>
    <path id="Path_5" data-name="Path 5" d="M21.5,7.706c2.535.367,4.448,1.977,4.448,3.908s-1.913,3.538-4.448,3.905" transform="translate(26.315 9.431)" fill="none" stroke="#425e7a" stroke-linecap="round" stroke-linejoin="round" stroke-width="2"/>
    <path id="Path_6" data-name="Path 6" d="M17.4,18.746H10.724c-1.228,0-2.224-.714-2.224-1.595s1-1.595,2.224-1.595H17.4c1.228,0,2.224.714,2.224,1.595S18.624,18.746,17.4,18.746Z" transform="translate(10.404 19.041)" fill="none" stroke="#425e7a" stroke-linecap="round" stroke-linejoin="round" stroke-width="2"/>
    <path id="Path_7" data-name="Path 7" d="M29.068,12.689c0,6.378-4.448,7.973-15.568,7.973" transform="translate(16.524 15.53)" fill="none" stroke="#425e7a" stroke-linecap="round" stroke-linejoin="round" stroke-width="2"/>
    <path id="Path_8" data-name="Path 8" d="M4.5,13.257v-.8C4.5,5.855,11.968.5,21.18.5S37.86,5.855,37.86,12.458v.8" transform="translate(5.508 0.611)" fill="none" stroke="#425e7a" stroke-linecap="round" stroke-linejoin="round" stroke-width="2"/>
  </g>
</svg>
