<svg id="Group_3846" data-name="Group 3846" xmlns="http://www.w3.org/2000/svg" xmlns:xlink="http://www.w3.org/1999/xlink" width="364.532" height="97.818" viewBox="0 0 364.532 97.818">
  <defs>
    <clipPath id="clip-path">
      <rect id="Rectangle_307" data-name="Rectangle 307" width="364.532" height="97.818" fill="none"/>
    </clipPath>
    <clipPath id="clip-path-3">
      <rect id="Rectangle_300" data-name="Rectangle 300" width="15.004" height="58.841" fill="none"/>
    </clipPath>
    <clipPath id="clip-path-4">
      <rect id="Rectangle_301" data-name="Rectangle 301" width="15.005" height="58.841" fill="none"/>
    </clipPath>
    <clipPath id="clip-path-5">
      <rect id="Rectangle_302" data-name="Rectangle 302" width="28.679" height="58.841" fill="none"/>
    </clipPath>
    <clipPath id="clip-path-6">
      <rect id="Rectangle_303" data-name="Rectangle 303" width="7.193" height="3.611" fill="none"/>
    </clipPath>
    <clipPath id="clip-path-7">
      <rect id="Rectangle_304" data-name="Rectangle 304" width="9.377" height="22.485" fill="none"/>
    </clipPath>
    <clipPath id="clip-path-8">
      <rect id="Rectangle_305" data-name="Rectangle 305" width="9.377" height="29.844" fill="none"/>
    </clipPath>
  </defs>
  <g id="Group_3845" data-name="Group 3845" clip-path="url(#clip-path)">
    <g id="Group_3844" data-name="Group 3844">
      <g id="Group_3843" data-name="Group 3843" clip-path="url(#clip-path)">
        <path id="Path_484" data-name="Path 484" d="M352.435,145.534H12.1A12.1,12.1,0,0,1,0,133.437V97.682a12.1,12.1,0,0,1,12.1-12.1H352.435a12.1,12.1,0,0,1,12.1,12.1v35.755a12.1,12.1,0,0,1-12.1,12.1" transform="translate(0 -66.651)" fill="#ffb319"/>
        <path id="Path_485" data-name="Path 485" d="M151.094,48.908A48.909,48.909,0,1,1,102.185,0a48.909,48.909,0,0,1,48.909,48.909" transform="translate(-41.489 0.001)" fill="#425e7a"/>
        <path id="Path_486" data-name="Path 486" d="M231.88,361.888H202.136a2.845,2.845,0,0,1-2.845-2.845v-.229a2.845,2.845,0,0,1,2.845-2.845H231.88a2.845,2.845,0,0,1,2.845,2.845v.229a2.845,2.845,0,0,1-2.845,2.845" transform="translate(-155.201 -277.215)" fill="#32526e"/>
        <path id="Path_487" data-name="Path 487" d="M231.88,69.164H202.136a2.845,2.845,0,0,1-2.845-2.845v-.229a2.845,2.845,0,0,1,2.845-2.845H231.88a2.845,2.845,0,0,1,2.845,2.845v.229a2.845,2.845,0,0,1-2.845,2.845" transform="translate(-155.201 -49.252)" fill="#32526e"/>
        <g id="Group_3827" data-name="Group 3827" transform="translate(62.92 19.911)" opacity="0.67">
          <g id="Group_3826" data-name="Group 3826">
            <g id="Group_3825" data-name="Group 3825" clip-path="url(#clip-path-3)">
              <path id="Path_488" data-name="Path 488" d="M298.9,136.091a24.067,24.067,0,0,1-.877,12.751H296.15c.054-.139.107-.278.159-.421,2.209-6.086,2.935-17.651-8.475-24.472a20.48,20.48,0,0,1-2.6-1.744,2.364,2.364,0,0,1-.827-1.819,2.807,2.807,0,0,1,.827-2.406,20.544,20.544,0,0,1,2.6-1.744c11.41-6.821,10.684-18.386,8.475-24.472-.228-.627-.477-1.217-.736-1.763H297.5a23.828,23.828,0,0,1,1.4,14.094,20.893,20.893,0,0,1-10.164,13.655c-2.385,1.426-2.572,1.654-2.572,2.049.074.966-.55.771,2.572,2.636A20.894,20.894,0,0,1,298.9,136.091" transform="translate(-284.401 -90.001)" fill="#dbe6ec"/>
            </g>
          </g>
        </g>
        <g id="Group_3830" data-name="Group 3830" transform="translate(45.692 19.911)" opacity="0.89">
          <g id="Group_3829" data-name="Group 3829">
            <g id="Group_3828" data-name="Group 3828" clip-path="url(#clip-path-4)">
              <path id="Path_489" data-name="Path 489" d="M221.533,120.386a2.366,2.366,0,0,1-.838,1.828,20.56,20.56,0,0,1-2.593,1.736c-11.41,6.821-10.684,18.386-8.475,24.472.052.142.1.282.159.421H207.9a23.814,23.814,0,0,1-.872-12.751A20.888,20.888,0,0,1,217.2,122.435c2.477-1.479,2.573-1.682,2.573-2.049-.076-.966.549-.771-2.573-2.636a20.887,20.887,0,0,1-10.163-13.655A23.849,23.849,0,0,1,208.425,90h1.937c-.258.547-.508,1.136-.736,1.763-2.209,6.086-2.935,17.651,8.475,24.472a20.505,20.505,0,0,1,2.6,1.744,2.85,2.85,0,0,1,.827,2.406" transform="translate(-206.529 -90.001)" fill="#fff"/>
            </g>
          </g>
        </g>
        <g id="Group_3833" data-name="Group 3833" transform="translate(47.469 19.911)" opacity="0.21">
          <g id="Group_3832" data-name="Group 3832">
            <g id="Group_3831" data-name="Group 3831" clip-path="url(#clip-path-5)">
              <path id="Path_490" data-name="Path 490" d="M241.921,148.422c-.052.142-.1.282-.159.421H216.041c-.054-.139-.107-.278-.159-.421-2.209-6.086-2.935-17.651,8.475-24.472a20.563,20.563,0,0,0,2.593-1.736,2.366,2.366,0,0,0,.838-1.828,2.85,2.85,0,0,0-.828-2.406,20.485,20.485,0,0,0-2.6-1.744c-11.41-6.822-10.684-18.386-8.475-24.472.228-.627.477-1.217.735-1.763h24.568c.258.547.508,1.136.736,1.763,2.209,6.086,2.935,17.651-8.475,24.472a20.545,20.545,0,0,0-2.6,1.744,2.807,2.807,0,0,0-.827,2.406,2.365,2.365,0,0,0,.827,1.819,20.508,20.508,0,0,0,2.6,1.744c11.41,6.821,10.684,18.386,8.475,24.472" transform="translate(-214.562 -90.001)" fill="#fff"/>
            </g>
          </g>
        </g>
        <path id="Path_491" data-name="Path 491" d="M247.157,253.894l-10.294-10.329a6.682,6.682,0,0,1-1.943-4.993l.567-13.675h-2.226l.566,13.675a6.682,6.682,0,0,1-1.943,4.993l-10.295,10.33Z" transform="translate(-172.566 -175.142)" fill="#f1c40f"/>
        <path id="Path_492" data-name="Path 492" d="M244.057,149.072c-.845,4.711-3.49,9.591-9.473,13.167a20.522,20.522,0,0,0-2.6,1.744,2.379,2.379,0,0,0-.829,1.864h-2.225a2.414,2.414,0,0,0-.828-1.864,20.466,20.466,0,0,0-2.6-1.744c-5.983-3.576-8.628-8.456-9.473-13.167l3.493,1.271a30.78,30.78,0,0,0,21.047,0Z" transform="translate(-168.231 -116.092)" fill="#f1c40f"/>
        <g id="Group_3836" data-name="Group 3836" transform="translate(52.054 19.911)" opacity="0.37">
          <g id="Group_3835" data-name="Group 3835">
            <g id="Group_3834" data-name="Group 3834" clip-path="url(#clip-path-6)">
              <path id="Path_493" data-name="Path 493" d="M241.073,93.612h-5.785A21.627,21.627,0,0,1,236.428,90h6.053a18.142,18.142,0,0,0-1.408,3.611" transform="translate(-235.288 -90.001)" fill="#fff"/>
            </g>
          </g>
        </g>
        <g id="Group_3839" data-name="Group 3839" transform="translate(51.318 27.271)" opacity="0.37">
          <g id="Group_3838" data-name="Group 3838">
            <g id="Group_3837" data-name="Group 3837" clip-path="url(#clip-path-7)">
              <path id="Path_494" data-name="Path 494" d="M241.34,145.75c-8.679-7.651-9.828-16.436-9.252-22.485h5.58c-.768,5.129-.574,12.7,3.6,21.945Z" transform="translate(-231.963 -123.265)" fill="#fff"/>
            </g>
          </g>
        </g>
        <g id="Group_3842" data-name="Group 3842" transform="translate(51.318 48.909)" opacity="0.37">
          <g id="Group_3841" data-name="Group 3841">
            <g id="Group_3840" data-name="Group 3840" clip-path="url(#clip-path-8)">
              <path id="Path_495" data-name="Path 495" d="M241.262,221.61c-8,17.727-1.372,29.305-1.372,29.305h-6.052a26.23,26.23,0,0,1,7.5-29.844Z" transform="translate(-231.962 -221.071)" fill="#fff"/>
            </g>
          </g>
        </g>
        <path id="Path_496" data-name="Path 496" d="M234.867,358.811v.229a2.845,2.845,0,0,1-2.845,2.845H202.277a2.844,2.844,0,0,1-2.805-2.37h28.49a2.845,2.845,0,0,0,2.846-2.845v-.229a2.808,2.808,0,0,0-.04-.476h1.254a2.845,2.845,0,0,1,2.845,2.845" transform="translate(-155.342 -277.214)" fill="#263e53"/>
        <path id="Path_497" data-name="Path 497" d="M234.863,66.089v.229a2.845,2.845,0,0,1-2.845,2.845H202.274a2.847,2.847,0,0,1-2.806-2.37h28.491a2.845,2.845,0,0,0,2.846-2.845v-.23a2.89,2.89,0,0,0-.039-.475h1.253a2.845,2.845,0,0,1,2.845,2.845" transform="translate(-155.339 -49.252)" fill="#263e53"/>
        <path id="Path_498" data-name="Path 498" d="M583.577,182.955l4.536,6.351H581.8l-2.976-4.536a15.825,15.825,0,0,1-3.266.327c-6.5,0-10.778-4.391-10.778-10.669,0-8.855,6.314-15.278,15.024-15.278,6.569,0,10.814,4.355,10.814,10.6,0,5.843-2.686,10.633-7.04,13.21m-7.294-2.54c5.589,0,9.181-4.718,9.181-10.2,0-3.956-2.323-6.387-6.351-6.387-5.552,0-9.145,4.645-9.145,10.161,0,3.956,2.286,6.423,6.315,6.423" transform="translate(-439.83 -123.94)" fill="#425e7a"/>
        <path id="Path_499" data-name="Path 499" d="M587.534,188.381H580.31l-2.948-4.494a16.478,16.478,0,0,1-3.1.284,11.124,11.124,0,0,1-8.084-3.088,10.942,10.942,0,0,1-3.061-7.948c0-9.065,6.473-15.645,15.391-15.645,6.688,0,11.181,4.406,11.181,10.963,0,5.733-2.5,10.563-6.88,13.317Zm-6.829-.733h5.4l-4.354-6.1.344-.2c4.36-2.58,6.86-7.279,6.86-12.894,0-6.119-4.2-10.23-10.448-10.23-8.493,0-14.657,6.271-14.657,14.911,0,6.163,4.184,10.3,10.411,10.3a15.49,15.49,0,0,0,3.189-.319l.246-.053Zm-5.714-8.158c-4.184,0-6.681-2.538-6.681-6.79a11.279,11.279,0,0,1,2.579-7.388,9,9,0,0,1,6.932-3.14c4.206,0,6.717,2.525,6.717,6.754,0,6.022-4.1,10.564-9.548,10.564m2.831-16.584c-5.086,0-8.778,4.119-8.778,9.794,0,3.849,2.168,6.057,5.948,6.057,5.025,0,8.814-4.226,8.814-9.831,0-3.826-2.181-6.02-5.984-6.02" transform="translate(-438.538 -122.648)" fill="#425e7a"/>
        <path id="Path_500" data-name="Path 500" d="M711.849,204.515h-5.081l.436-2.54a8.749,8.749,0,0,1-6.459,2.794c-4.718,0-7.548-3.048-6.569-8.564l2.068-11.794h5.08l-1.959,11.068c-.544,3.23.907,4.972,3.629,4.972s4.826-1.742,5.371-4.972l1.959-11.068h5.081Z" transform="translate(-540.449 -143.612)" fill="#425e7a"/>
        <path id="Path_501" data-name="Path 501" d="M699.457,203.845a7.065,7.065,0,0,1-5.644-2.275c-1.338-1.6-1.783-3.92-1.285-6.72l2.122-12.1h5.826l-2.036,11.5a4.275,4.275,0,0,0,.607,3.519,3.306,3.306,0,0,0,2.661,1.023c2.644,0,4.517-1.744,5.009-4.666l2.013-11.374h5.825l-3.686,20.838h-5.823l.32-1.864a9.265,9.265,0,0,1-5.909,2.118m-4.192-20.359-2.015,11.491c-.458,2.58-.069,4.7,1.125,6.122a6.363,6.363,0,0,0,5.082,2.013,8.376,8.376,0,0,0,6.186-2.672l.85-.952-.578,3.37h4.338l3.427-19.371h-4.336l-1.906,10.766c-.556,3.3-2.7,5.274-5.732,5.274a4.051,4.051,0,0,1-3.221-1.282,4.965,4.965,0,0,1-.769-4.117l1.884-10.641Z" transform="translate(-539.162 -142.322)" fill="#425e7a"/>
        <path id="Path_502" data-name="Path 502" d="M800.931,155.029h5.117l-3.556,20.1h-5.117Zm.4-5.371A3.714,3.714,0,0,1,805,146.683a2.442,2.442,0,0,1,2.577,2.976,3.7,3.7,0,0,1-3.629,2.976,2.451,2.451,0,0,1-2.613-2.976" transform="translate(-620.967 -114.231)" fill="#425e7a"/>
        <path id="Path_503" data-name="Path 503" d="M801.261,174.21H795.4l3.686-20.838h5.861Zm-4.987-.733h4.373l3.427-19.371H799.7Zm6.132-21.767a3.049,3.049,0,0,1-2.4-1.015,2.876,2.876,0,0,1-.578-2.39,4.079,4.079,0,0,1,4.027-3.279,3,3,0,0,1,2.357,1.007,2.886,2.886,0,0,1,.581,2.4,4.055,4.055,0,0,1-3.99,3.279m1.052-5.951a3.338,3.338,0,0,0-3.3,2.672,2.156,2.156,0,0,0,.417,1.792,2.333,2.333,0,0,0,1.835.754,3.358,3.358,0,0,0,3.268-2.672,2.166,2.166,0,0,0-.42-1.8,2.284,2.284,0,0,0-1.8-.746" transform="translate(-619.429 -112.941)" fill="#425e7a"/>
        <path id="Path_504" data-name="Path 504" d="M856.242,182.934c5.008,0,7.911,2.613,8.238,7.112H859a3.223,3.223,0,0,0-3.556-2.794c-2.831,0-5.081,2.141-5.77,6.06s.835,6.024,3.665,6.024a4.715,4.715,0,0,0,4.5-2.758h5.48a11.393,11.393,0,0,1-10.705,7.113c-5.843,0-9.29-4.065-8.129-10.379,1.088-6.315,5.951-10.379,11.758-10.379" transform="translate(-657.479 -142.462)" fill="#425e7a"/>
        <path id="Path_505" data-name="Path 505" d="M851.314,202.768a8.606,8.606,0,0,1-6.892-2.854c-1.641-1.97-2.193-4.722-1.6-7.958,1.1-6.386,5.971-10.679,12.119-10.679,5.124,0,8.26,2.716,8.6,7.453l.029.393h-6.184l-.052-.3a2.869,2.869,0,0,0-3.195-2.489c-2.753,0-4.775,2.152-5.409,5.757-.353,2.007-.116,3.573.686,4.529a3.238,3.238,0,0,0,2.618,1.065,4.372,4.372,0,0,0,4.175-2.56l.1-.2h6.26l-.221.512a11.761,11.761,0,0,1-11.042,7.334m3.629-20.758c-5.778,0-10.358,4.049-11.4,10.074-.555,3.019-.057,5.563,1.439,7.36a7.9,7.9,0,0,0,6.328,2.59,11.01,11.01,0,0,0,10.134-6.38h-4.69a5.019,5.019,0,0,1-4.719,2.758,3.989,3.989,0,0,1-3.18-1.327c-.946-1.127-1.238-2.9-.846-5.127.7-3.985,2.993-6.364,6.131-6.364A3.564,3.564,0,0,1,858,188.389h4.779c-.453-4.119-3.222-6.379-7.836-6.379" transform="translate(-656.18 -141.172)" fill="#425e7a"/>
        <path id="Path_506" data-name="Path 506" d="M946.477,153.9h5.117l-2.686,15.242,8.2-8.492h6.641L953.119,170.7l7.113,10.052h-6.569l-5.3-8.528-1.524,8.528h-5.117Z" transform="translate(-733.381 -119.852)" fill="#425e7a"/>
        <path id="Path_507" data-name="Path 507" d="M959.4,179.83H951.92l-4.9-7.89-1.41,7.89h-5.861l4.884-27.588h5.861l-2.553,14.491,7.477-7.741h7.718l-11.071,10.467Zm-7.073-.733h5.656l-6.887-9.733,10.194-9.638h-5.564l-8.926,9.242,2.818-15.992h-4.373L940.622,179.1h4.373l1.639-9.167Z" transform="translate(-731.841 -118.561)" fill="#425e7a"/>
        <path id="Path_508" data-name="Path 508" d="M1105.2,182.955l4.536,6.351h-6.314l-2.976-4.536a15.821,15.821,0,0,1-3.266.327c-6.5,0-10.778-4.391-10.778-10.669,0-8.855,6.314-15.278,15.024-15.278,6.568,0,10.814,4.355,10.814,10.6,0,5.843-2.685,10.633-7.04,13.21m-7.294-2.54c5.589,0,9.181-4.718,9.181-10.2,0-3.956-2.323-6.387-6.351-6.387-5.552,0-9.145,4.645-9.145,10.161,0,3.956,2.286,6.423,6.315,6.423" transform="translate(-846.049 -123.94)" fill="#425e7a"/>
        <path id="Path_509" data-name="Path 509" d="M1109.156,188.381h-7.225l-2.948-4.494a16.477,16.477,0,0,1-3.1.284,11.125,11.125,0,0,1-8.084-3.088,10.942,10.942,0,0,1-3.06-7.948c0-9.065,6.473-15.645,15.391-15.645,6.688,0,11.181,4.406,11.181,10.963,0,5.733-2.5,10.563-6.879,13.317Zm-6.829-.733h5.4l-4.354-6.1.344-.2c4.36-2.58,6.86-7.279,6.86-12.894,0-6.119-4.2-10.23-10.448-10.23-8.493,0-14.657,6.271-14.657,14.911,0,6.163,4.184,10.3,10.411,10.3a15.488,15.488,0,0,0,3.189-.319l.245-.053Zm-5.714-8.158c-4.183,0-6.681-2.538-6.681-6.79a11.28,11.28,0,0,1,2.579-7.388,9,9,0,0,1,6.933-3.14c4.206,0,6.717,2.525,6.717,6.754,0,6.022-4.1,10.564-9.548,10.564m2.831-16.584c-5.086,0-8.779,4.119-8.779,9.794,0,3.849,2.168,6.057,5.948,6.057,5.025,0,8.815-4.226,8.815-9.831,0-3.826-2.181-6.02-5.984-6.02" transform="translate(-844.759 -122.648)" fill="#425e7a"/>
        <path id="Path_510" data-name="Path 510" d="M1233.469,204.515h-5.081l.436-2.54a8.749,8.749,0,0,1-6.459,2.794c-4.718,0-7.548-3.048-6.569-8.564l2.069-11.794h5.08l-1.96,11.068c-.545,3.23.907,4.972,3.629,4.972s4.827-1.742,5.371-4.972l1.96-11.068h5.081Z" transform="translate(-946.668 -143.612)" fill="#425e7a"/>
        <path id="Path_511" data-name="Path 511" d="M1221.077,203.845a7.065,7.065,0,0,1-5.644-2.275c-1.338-1.6-1.783-3.92-1.285-6.72l2.122-12.1h5.826l-2.036,11.5a4.275,4.275,0,0,0,.606,3.519,3.306,3.306,0,0,0,2.661,1.023c2.644,0,4.517-1.744,5.009-4.666l2.013-11.374h5.825l-3.686,20.838h-5.823l.32-1.864a9.264,9.264,0,0,1-5.909,2.118m-4.192-20.359-2.015,11.491c-.458,2.58-.069,4.7,1.125,6.122a6.363,6.363,0,0,0,5.082,2.013,8.376,8.376,0,0,0,6.186-2.672l.85-.952-.578,3.37h4.338l3.427-19.371h-4.336l-1.906,10.766c-.556,3.3-2.7,5.274-5.732,5.274a4.051,4.051,0,0,1-3.221-1.282,4.964,4.964,0,0,1-.769-4.117l1.884-10.641Z" transform="translate(-945.381 -142.322)" fill="#425e7a"/>
        <path id="Path_512" data-name="Path 512" d="M1329.019,203.692c-5.189,0-8.71-3.411-8.71-8.456a12.087,12.087,0,0,1,12.3-12.3c5.226,0,8.818,3.411,8.818,8.492a12.126,12.126,0,0,1-12.411,12.266m.689-4.355c3.774,0,6.46-3.665,6.46-7.512,0-3.048-1.96-4.536-4.282-4.536-3.81,0-6.314,3.665-6.314,7.584,0,2.976,1.778,4.464,4.137,4.464" transform="translate(-1028.209 -142.462)" fill="#425e7a"/>
        <path id="Path_513" data-name="Path 513" d="M1327.728,202.768c-5.429,0-9.076-3.546-9.076-8.822a12.453,12.453,0,0,1,12.669-12.669c5.494,0,9.185,3.56,9.185,8.858a12.52,12.52,0,0,1-3.688,9.007,12.828,12.828,0,0,1-9.089,3.626m3.593-20.758a11.674,11.674,0,0,0-11.936,11.936c0,4.838,3.353,8.089,8.343,8.089a11.71,11.71,0,0,0,12.044-11.9c0-4.86-3.4-8.125-8.452-8.125m-2.9,16.4c-2.778,0-4.5-1.851-4.5-4.83,0-3.908,2.5-7.951,6.681-7.951,2.824,0,4.649,1.925,4.649,4.9,0,3.789-2.61,7.878-6.827,7.878m2.177-12.048c-3.723,0-5.948,3.67-5.948,7.218,0,2.565,1.41,4.1,3.77,4.1,3.764,0,6.093-3.709,6.093-7.145,0-3.074-2.022-4.17-3.916-4.17" transform="translate(-1026.919 -141.172)" fill="#425e7a"/>
        <path id="Path_514" data-name="Path 514" d="M1431.62,171.083h-2.4l.726-4.173h2.431l.871-4.972h5.117l-.871,4.972h4.464l-.726,4.173h-4.5l-1.706,9.726c-.217,1.343.218,1.923,1.778,1.923h2.4l-.762,4.282h-3.23c-3.846,0-6.1-1.633-5.3-6.242Z" transform="translate(-1113.029 -126.112)" fill="#425e7a"/>
        <path id="Path_515" data-name="Path 515" d="M1437.215,186.09h-3.537c-2.287,0-3.863-.552-4.818-1.686-.938-1.115-1.221-2.792-.841-4.985l1.63-9.26h-2.395l.854-4.907h2.432l.871-4.972h5.861l-.871,4.972h4.463l-.853,4.907h-4.5l-1.653,9.422a1.456,1.456,0,0,0,.129,1.151,1.7,1.7,0,0,0,1.289.343h2.833Zm-9.089-16.664h2.4l-1.781,10.119c-.341,1.969-.112,3.445.68,4.386.807.959,2.2,1.425,4.257,1.425h2.923l.632-3.549h-1.957a2.286,2.286,0,0,1-1.847-.6,2.063,2.063,0,0,1-.293-1.748l1.76-10.034h4.5l.6-3.44h-4.464l.871-4.971h-4.372l-.871,4.971h-2.431Z" transform="translate(-1111.495 -124.821)" fill="#425e7a"/>
        <path id="Path_516" data-name="Path 516" d="M1497.1,203.692c-5.843,0-9.436-4.065-8.274-10.379,1.125-6.351,5.951-10.379,11.9-10.379,5.807,0,9.218,3.955,8.165,9.907a14.311,14.311,0,0,1-.472,1.887h-14.7c-.327,3.049,1.416,4.754,3.992,4.754a4.982,4.982,0,0,0,4.428-2.432h5.48a11.526,11.526,0,0,1-10.524,6.641m-2.831-12.048h9.581c.435-2.867-1.379-4.536-3.992-4.536a5.872,5.872,0,0,0-5.589,4.536" transform="translate(-1159.272 -142.462)" fill="#425e7a"/>
        <path id="Path_517" data-name="Path 517" d="M1495.8,202.768a8.875,8.875,0,0,1-7.016-2.918c-1.646-1.976-2.206-4.706-1.619-7.894,1.131-6.387,6.06-10.679,12.263-10.679a8.79,8.79,0,0,1,6.926,2.842,8.9,8.9,0,0,1,1.6,7.5,14.421,14.421,0,0,1-.485,1.939l-.083.251h-14.624a3.924,3.924,0,0,0,.856,2.924,3.63,3.63,0,0,0,2.8,1.1,4.624,4.624,0,0,0,4.116-2.258l.108-.173h6.256l-.24.52a11.941,11.941,0,0,1-10.857,6.854m3.629-20.758c-5.836,0-10.475,4.049-11.542,10.076-.546,2.97-.041,5.491,1.461,7.295a8.161,8.161,0,0,0,6.452,2.654,11.227,11.227,0,0,0,9.934-5.908h-4.69a5.311,5.311,0,0,1-4.627,2.431,4.339,4.339,0,0,1-3.344-1.34,4.787,4.787,0,0,1-1.013-3.819l.035-.328h14.759a14.586,14.586,0,0,0,.379-1.588,8.189,8.189,0,0,0-1.44-6.893,7.972,7.972,0,0,0-6.365-2.58m3.436,8.709h-10.385l.137-.469a6.251,6.251,0,0,1,5.941-4.8,4.506,4.506,0,0,1,3.508,1.422,4.272,4.272,0,0,1,.846,3.536Zm-9.39-.733h8.75a3.437,3.437,0,0,0-.716-2.636,3.792,3.792,0,0,0-2.952-1.167,5.456,5.456,0,0,0-5.083,3.8" transform="translate(-1157.973 -141.172)" fill="#425e7a"/>
      </g>
    </g>
  </g>
</svg>
