<svg id="site-logo" xmlns="http://www.w3.org/2000/svg" xmlns:xlink="http://www.w3.org/1999/xlink" width="330.603" height="92.113" viewBox="0 0 330.603 92.113">
  <defs>
    <clipPath id="clip-path">
      <rect id="Rectangle_310" data-name="Rectangle 310" width="38.623" height="86.004" fill="none"/>
    </clipPath>
    <clipPath id="clip-path-2">
      <rect id="Rectangle_313" data-name="Rectangle 313" width="40.78" height="86.945" fill="none"/>
    </clipPath>
  </defs>
  <g id="Group_3858" data-name="Group 3858">
    <path id="Path_518" data-name="Path 518" d="M99.65,2.614l.024,12.793,3.217-.006L102.864.469Z" transform="translate(-87.473 -0.411)" fill="#cea85b"/>
    <path id="Path_519" data-name="Path 519" d="M385.051,0l.027,14.932,3.219-.006-.023-12.793Z" transform="translate(-338)" fill="#cea85b"/>
    <rect id="Rectangle_308" data-name="Rectangle 308" width="31.661" height="3.526" transform="translate(15.391 0.057) rotate(-0.104)" fill="#a07c35"/>
    <g id="Group_3855" data-name="Group 3855">
      <g id="Group_3859" data-name="Group 3859">
        <path id="Path_520" data-name="Path 520" d="M66.347,164.331,0,164.451q1.21-37.971,2.414-75.94L63.657,88.4q1.346,37.966,2.69,75.931" transform="translate(0 -77.598)" fill="#b58f3c"/>
        <path id="Path_521" data-name="Path 521" d="M110.094,31.164l-3.377.006-.027-14.91,3.372-2.5Z" transform="translate(-93.653 -12.08)" fill="#cea85b"/>
        <path id="Path_522" data-name="Path 522" d="M406.17,30.67l3.377-.006-.027-14.91-3.382-2.486Z" transform="translate(-356.51 -11.647)" fill="#cea85b"/>
        <rect id="Rectangle_309" data-name="Rectangle 309" width="33.22" height="4.109" transform="translate(16.409 1.682) rotate(-0.103)" fill="#a07c35"/>
        <g id="Group_3850" data-name="Group 3850" transform="translate(33.079 3.602)" opacity="0.12" style="mix-blend-mode: multiply;isolation: isolate">
          <g id="Group_3849" data-name="Group 3849">
            <g id="Group_3848" data-name="Group 3848" clip-path="url(#clip-path)">
              <path id="Path_523" data-name="Path 523" d="M301.438,87.305l-30.621.055.138,75.935,33.173-.06q-1.346-37.966-2.69-75.93" transform="translate(-270.804 -80.238)" fill="#231f20"/>
            </g>
          </g>
        </g>
        <path id="Path_524" data-name="Path 524" d="M439.227,23.469l-3.217-.087.346-12.788,3.275-2.051Z" transform="translate(-382.732 -7.498)" fill="#727272"/>
        <path id="Path_525" data-name="Path 525" d="M721.336,30.489l3.217.087.347-12.788-3.159-2.226Z" transform="translate(-633.192 -13.66)" fill="#727272"/>
        <rect id="Rectangle_311" data-name="Rectangle 311" width="3.526" height="31.661" transform="translate(56.804 4.569) rotate(-88.448)" fill="#2d2d2d"/>
        <path id="Path_526" data-name="Path 526" d="M385.537,171.912l-66.323-1.8q2.307-37.919,4.609-75.838l61.219,1.659q.25,37.988.495,75.976" transform="translate(-280.208 -82.756)" fill="#425e7a"/>
        <path id="Path_527" data-name="Path 527" d="M445.486,39.463l-3.375-.092.4-14.9,3.443-2.4Z" transform="translate(-388.087 -19.37)" fill="#727272"/>
        <path id="Path_528" data-name="Path 528" d="M741.488,46.827l3.376.092.4-14.9L741.96,29.43Z" transform="translate(-650.882 -25.834)" fill="#727272"/>
        <rect id="Rectangle_312" data-name="Rectangle 312" width="4.11" height="33.219" transform="matrix(0.027, -1, 1, 0.027, 57.759, 6.805)" fill="#2d2d2d"/>
        <g id="Group_3853" data-name="Group 3853" transform="translate(72.149 5.168)" opacity="0.12" style="mix-blend-mode: multiply;isolation: isolate">
          <g id="Group_3852" data-name="Group 3852">
            <g id="Group_3851" data-name="Group 3851" clip-path="url(#clip-path-2)">
              <path id="Path_529" data-name="Path 529" d="M623.755,100.81l-30.609-.83-2.058,75.907,33.162.9q-.25-37.989-.495-75.976" transform="translate(-591.008 -92.931)" fill="#231f20"/>
            </g>
          </g>
        </g>
        <path id="Path_530" data-name="Path 530" d="M511.727,302.623H493.794V301.01h4.932a.538.538,0,0,0,0-1.076h-5.47a.538.538,0,0,0-.538.538v2.69a.717.717,0,1,1-1.435,0v-2.69a.538.538,0,0,0-.538-.538h-4.125a2.152,2.152,0,0,1,0-4.3h8.329l6.578,5.262a.538.538,0,0,0,.672,0l6.578-5.262h1.156a2.152,2.152,0,1,1,0,4.3H505a.538.538,0,0,0,0,1.076h4.932a3.228,3.228,0,1,0,0-6.456H486.621a3.228,3.228,0,0,0,0,6.456h3.587v1.614h-5.38a.538.538,0,0,0-.538.538,6.822,6.822,0,0,0,6.814,6.815h14.346a6.822,6.822,0,0,0,6.815-6.815.538.538,0,0,0-.538-.538m-9.863-2.841-5.191-4.153h10.382Zm3.587,9.117H491.1a5.747,5.747,0,0,1-5.714-5.2h4.9a1.793,1.793,0,0,0,3.421,0h17.453a5.746,5.746,0,0,1-5.713,5.2m-20.623-18.65h26.9a.538.538,0,0,0,.538-.538,11.311,11.311,0,0,0-11.3-11.3h-5.38a11.311,11.311,0,0,0-11.3,11.3.538.538,0,0,0,.538.538m10.76-10.76h5.38a10.235,10.235,0,0,1,10.208,9.684h-25.8a10.235,10.235,0,0,1,10.208-9.684m-3.43,5.582a.538.538,0,0,1,0,.761l-1.345,1.345a.538.538,0,0,1-.761-.761l1.345-1.345a.538.538,0,0,1,.761,0m7.173,0a.538.538,0,0,1,0,.761l-1.345,1.345a.538.538,0,0,1-.761-.761l1.345-1.345a.538.538,0,0,1,.761,0m7.173,0a.538.538,0,0,1,0,.761l-1.345,1.345a.538.538,0,0,1-.761-.761l1.345-1.345a.538.538,0,0,1,.761,0m-3.587-2.242a.538.538,0,0,1-.761.761l-1.345-1.345a.538.538,0,1,1,.761-.761Zm-7.173,0a.538.538,0,0,1-.761.761l-1.345-1.345a.538.538,0,1,1,.761-.761Zm-11.454,9.123a.538.538,0,0,1,.538-.538,2.654,2.654,0,0,1,1.643.539,1.708,1.708,0,0,0,2.093,0,2.775,2.775,0,0,1,3.286,0,1.708,1.708,0,0,0,2.093,0,2.776,2.776,0,0,1,3.287,0,1.709,1.709,0,0,0,2.093,0,2.776,2.776,0,0,1,3.287,0,1.709,1.709,0,0,0,2.093,0,2.776,2.776,0,0,1,3.287,0,1.709,1.709,0,0,0,2.094,0,2.656,2.656,0,0,1,1.644-.539.538.538,0,0,1,0,1.076,1.6,1.6,0,0,0-1.047.358,2.776,2.776,0,0,1-3.287,0,1.71,1.71,0,0,0-2.093,0,2.776,2.776,0,0,1-3.287,0,1.71,1.71,0,0,0-2.093,0,2.776,2.776,0,0,1-3.287,0,1.709,1.709,0,0,0-2.093,0,2.775,2.775,0,0,1-3.286,0,1.708,1.708,0,0,0-2.093,0,2.775,2.775,0,0,1-3.286,0,1.6,1.6,0,0,0-1.046-.358.538.538,0,0,1-.538-.538" transform="translate(-424.325 -244.393)" fill="#fafafa"/>
        <path id="Path_531" data-name="Path 531" d="M522.651,569.65h1.218a1.266,1.266,0,0,1,1.036.347,1.953,1.953,0,0,1,.281,1.17v.146a3.127,3.127,0,0,1-.111.935.821.821,0,0,1-.4.494q.621.253.621,1.621v.142a2.746,2.746,0,0,1-.307,1.45,1.141,1.141,0,0,1-1.023.439h-1.318Zm1.751,1.529v-.023q0-.674-.234-.8a.724.724,0,0,0-.333-.061h-.391v2.168h.448a.552.552,0,0,0,.328-.075.478.478,0,0,0,.14-.3,4.385,4.385,0,0,0,.042-.728Zm.1,3.069a2.673,2.673,0,0,0-.107-.912.412.412,0,0,0-.421-.26h-.529v2.678h.486a.448.448,0,0,0,.454-.264,2.871,2.871,0,0,0,.117-1.008Z" transform="translate(-458.785 -500.041)" fill="#ffb319"/>
        <path id="Path_532" data-name="Path 532" d="M553.556,569.65h.789v5.011a2.49,2.49,0,0,1-.3,1.379,1.157,1.157,0,0,1-1.029.433,1.173,1.173,0,0,1-1.034-.433,2.452,2.452,0,0,1-.3-1.379V569.65h.793v4.992a3.155,3.155,0,0,0,.055.806.885.885,0,0,0,.117.209.432.432,0,0,0,.372.146.466.466,0,0,0,.391-.161.807.807,0,0,0,.136-.479q.009-.318.01-.517Z" transform="translate(-484.27 -500.041)" fill="#ffb319"/>
        <path id="Path_533" data-name="Path 533" d="M582.188,569.65H583.6a1.24,1.24,0,0,1,.866.249,1.3,1.3,0,0,1,.318.847q.023.245.023.764a2.433,2.433,0,0,1-.136.871.717.717,0,0,1-.481.456.524.524,0,0,1,.383.266,1.9,1.9,0,0,1,.184.713,14.475,14.475,0,0,1,.054,1.452,5.311,5.311,0,0,0,.061,1.125h-.789a17.875,17.875,0,0,1-.061-2.272q0-.724-.142-.841a.666.666,0,0,0-.429-.117l-.471-.027v3.256h-.793Zm1.835,1.651q0-.778-.14-.9a.6.6,0,0,0-.4-.122h-.5v2.276h.506a.528.528,0,0,0,.337-.088.563.563,0,0,0,.153-.337,4.752,4.752,0,0,0,.046-.782Z" transform="translate(-511.047 -500.041)" fill="#ffb319"/>
        <path id="Path_534" data-name="Path 534" d="M611.44,570.98q0-1.486.7-1.847a1.37,1.37,0,0,1,.605-.142,1.266,1.266,0,0,1,.893.262,1.242,1.242,0,0,1,.356.693,5.813,5.813,0,0,1,.08,1.048v.521h-.766v-.877a1.864,1.864,0,0,0-.105-.739.413.413,0,0,0-.414-.222.442.442,0,0,0-.435.28,2.665,2.665,0,0,0-.127.988v2.835a3.853,3.853,0,0,0,.111,1.124.429.429,0,0,0,.439.316.447.447,0,0,0,.448-.326,3.643,3.643,0,0,0,.121-1.13v-.877H612.8v-.613h1.276v3.54h-.418l-.107-.521a.85.85,0,0,1-.864.586,1.032,1.032,0,0,1-.944-.5,3.1,3.1,0,0,1-.306-1.576Z" transform="translate(-536.725 -499.464)" fill="#ffb319"/>
        <path id="Path_535" data-name="Path 535" d="M641.6,569.65h2.015v.659h-1.222v2.306h1.157v.659h-1.157v2.46h1.237v.659H641.6Z" transform="translate(-563.2 -500.041)" fill="#ffb319"/>
        <path id="Path_536" data-name="Path 536" d="M665.773,569.65h1.414a1.24,1.24,0,0,1,.866.249,1.3,1.3,0,0,1,.318.847q.023.245.023.764a2.433,2.433,0,0,1-.136.871.717.717,0,0,1-.481.456.524.524,0,0,1,.383.266,1.9,1.9,0,0,1,.184.713,14.475,14.475,0,0,1,.054,1.452,5.3,5.3,0,0,0,.061,1.125h-.789a17.889,17.889,0,0,1-.061-2.272q0-.724-.142-.841a.665.665,0,0,0-.429-.117l-.471-.027v3.256h-.793Zm1.835,1.651q0-.778-.14-.9a.6.6,0,0,0-.4-.122h-.5v2.276h.506a.527.527,0,0,0,.337-.088.561.561,0,0,0,.153-.337,4.752,4.752,0,0,0,.046-.782Z" transform="translate(-584.419 -500.041)" fill="#ffb319"/>
        <path id="Path_537" data-name="Path 537" d="M582.545,247.412l.078.628H588l.078-.628Z" transform="translate(-511.361 -217.18)" fill="#ffb319"/>
        <path id="Path_538" data-name="Path 538" d="M583.893,207.816l.516-4.125-2.017,2.69-1.345-3.362-1.345,3.362-2.017-2.69.516,4.125Z" transform="translate(-507.094 -178.211)" fill="#ffb319"/>
        <path id="Path_539" data-name="Path 539" d="M450.3,277.471h-7.263V232.554h12.643v.628H443.662v43.662H450.3Z" transform="translate(-388.897 -204.137)" fill="#ffb319"/>
        <path id="Path_540" data-name="Path 540" d="M676.546,277.471h-7.263v-.628h6.635V233.181H663.9v-.628h12.643Z" transform="translate(-582.777 -204.137)" fill="#ffb319"/>
        <path id="Path_541" data-name="Path 541" d="M1069.42,165.691h-5.2v12.364h-8.39V143.613h13.59c8.439,0,12.658,4.759,12.658,11.088,0,5.691-3.876,10.99-12.658,10.99m-.638-6.672c3.336,0,4.759-1.668,4.759-4.317s-1.423-4.317-4.759-4.317h-4.563v8.635Z" transform="translate(-926.812 -126.064)" fill="#425e7a"/>
        <path id="Path_542" data-name="Path 542" d="M1320.447,143.612c8.439,0,12.658,4.857,12.658,10.843a10.025,10.025,0,0,1-7.654,9.96l7.948,13.639h-9.469l-7.163-13h-2.011v13h-8.39V143.612Zm-.491,6.967h-5.2v8.537h5.2c3.14,0,4.612-1.619,4.612-4.318,0-2.551-1.472-4.219-4.612-4.219" transform="translate(-1146.734 -126.063)" fill="#425e7a"/>
        <rect id="Rectangle_314" data-name="Rectangle 314" width="8.39" height="34.442" transform="translate(191.62 17.549)" fill="#425e7a"/>
        <path id="Path_543" data-name="Path 543" d="M1717.4,143.612v34.442h-8.39l-14.032-21.244v21.244h-8.39V143.612h8.39l14.032,21.342V143.612Z" transform="translate(-1480.495 -126.064)" fill="#425e7a"/>
        <path id="Path_544" data-name="Path 544" d="M1973.265,143.612h26.641v6.722h-9.126v27.72h-8.389v-27.72h-9.126Z" transform="translate(-1732.14 -126.064)" fill="#425e7a"/>
        <path id="Path_545" data-name="Path 545" d="M2246.9,150.334H2234.2V157.3h11.235v6.476H2234.2v7.556H2246.9v6.721h-21.1V143.612h21.1Z" transform="translate(-1953.823 -126.064)" fill="#425e7a"/>
        <path id="Path_546" data-name="Path 546" d="M2473.972,160.833c0,10.2-7.065,17.221-18.055,17.221h-12.9V143.612h12.9c10.99,0,18.055,6.967,18.055,17.221m-18.594,9.96c6.329,0,10.057-3.631,10.057-9.96s-3.729-10.058-10.057-10.058H2451.4v20.017Z" transform="translate(-2144.488 -126.063)" fill="#425e7a"/>
        <path id="Path_547" data-name="Path 547" d="M1069.047,493.281a6.658,6.658,0,0,1,6.49,4.2h-2.753a3.9,3.9,0,0,0-3.738-2.19c-2.773,0-4.783,1.969-4.783,5.124s2.01,5.144,4.783,5.144a3.9,3.9,0,0,0,3.738-2.19h2.753a6.641,6.641,0,0,1-6.49,4.18,7.133,7.133,0,1,1,0-14.267" transform="translate(-932.152 -433.004)" fill="#b58f3c"/>
        <path id="Path_548" data-name="Path 548" d="M1197.779,505.728h-5.848l-1,2.853h-2.391l5-13.986h2.652l5,13.986h-2.411Zm-2.914-8.359-2.291,6.49h4.561Z" transform="translate(-1043.302 -434.159)" fill="#b58f3c"/>
        <path id="Path_549" data-name="Path 549" d="M1314.719,494.761c3.316,0,4.943,1.909,4.943,4.18a3.975,3.975,0,0,1-3.235,4l3.456,5.787h-2.733l-3.215-5.586h-1.748v5.586H1309.9V494.761Zm0,1.869h-2.532v4.682h2.532c1.788,0,2.592-.985,2.592-2.371,0-1.407-.8-2.311-2.592-2.311" transform="translate(-1149.833 -434.303)" fill="#b58f3c"/>
        <path id="Path_550" data-name="Path 550" d="M1418.646,494.761c3.315,0,4.943,1.909,4.943,4.18a3.975,3.975,0,0,1-3.235,4l3.456,5.787h-2.733l-3.215-5.586h-1.748v5.586h-2.291V494.761Zm0,1.869h-2.532v4.682h2.532c1.788,0,2.592-.985,2.592-2.371,0-1.407-.8-2.311-2.592-2.311" transform="translate(-1241.06 -434.303)" fill="#b58f3c"/>
        <rect id="Rectangle_315" data-name="Rectangle 315" width="2.291" height="13.965" transform="translate(185.462 60.458)" fill="#b58f3c"/>
        <path id="Path_551" data-name="Path 551" d="M1568.88,496.465h-5.425v4.1h4.823v1.869h-4.823v4.28h5.425v1.869h-7.716V494.6h7.716Z" transform="translate(-1370.397 -434.159)" fill="#b58f3c"/>
        <path id="Path_552" data-name="Path 552" d="M1652.154,494.761c3.316,0,4.943,1.909,4.943,4.18a3.975,3.975,0,0,1-3.235,4l3.456,5.787h-2.733l-3.215-5.586h-1.748v5.586h-2.291V494.761Zm0,1.869h-2.532v4.682h2.532c1.788,0,2.592-.985,2.592-2.371,0-1.407-.8-2.311-2.592-2.311" transform="translate(-1446.035 -434.303)" fill="#b58f3c"/>
        <path id="Path_553" data-name="Path 553" d="M1799.6,508.727h-5.587V494.761h5.325c2.954,0,4.521,1.628,4.521,3.6a3.267,3.267,0,0,1-2.371,3.2,3.473,3.473,0,0,1,2.693,3.416c0,2.13-1.728,3.758-4.581,3.758m-.462-12.1H1796.3v4h2.833c1.487,0,2.391-.7,2.391-1.989,0-1.266-.9-2.01-2.391-2.01m.181,5.868H1796.3v4.361h3.094c1.547,0,2.492-.784,2.492-2.13,0-1.387-1.045-2.23-2.572-2.23" transform="translate(-1574.793 -434.303)" fill="#b58f3c"/>
        <path id="Path_554" data-name="Path 554" d="M1900.113,505.728h-5.847l-1,2.853h-2.391l5-13.986h2.652l5,13.986h-2.411Zm-2.914-8.359-2.291,6.49h4.562Z" transform="translate(-1659.814 -434.159)" fill="#b58f3c"/>
        <path id="Path_555" data-name="Path 555" d="M2019.606,497.481h-2.753a3.971,3.971,0,0,0-3.738-2.11c-2.773,0-4.782,1.969-4.782,5.044s2.009,5.064,4.782,5.064a4.229,4.229,0,0,0,4.461-3.878h-5.245v-1.829h7.7v1.788a6.885,6.885,0,0,1-6.912,5.988,7.133,7.133,0,0,1,0-14.267,6.658,6.658,0,0,1,6.491,4.2" transform="translate(-1760.86 -433.004)" fill="#b58f3c"/>
        <path id="Path_556" data-name="Path 556" d="M2141.493,507.568c-2.793,0-4.943-1.527-4.943-4H2139a2.241,2.241,0,0,0,2.491,2.07c1.608,0,2.512-.864,2.512-2.05,0-3.376-7.415-1.186-7.415-6.33,0-2.451,1.949-3.979,4.8-3.979,2.673,0,4.562,1.407,4.762,3.8h-2.532a2.185,2.185,0,0,0-2.351-1.849c-1.326-.04-2.351.6-2.351,1.949,0,3.155,7.395,1.186,7.395,6.289,0,2.09-1.708,4.1-4.823,4.1" transform="translate(-1875.473 -433.004)" fill="#b58f3c"/>
        <path id="Path_557" data-name="Path 557" d="M2283.571,507.568c-2.793,0-4.943-1.527-4.943-4h2.451a2.241,2.241,0,0,0,2.492,2.07c1.607,0,2.512-.864,2.512-2.05,0-3.376-7.415-1.186-7.415-6.33,0-2.451,1.949-3.979,4.8-3.979,2.672,0,4.561,1.407,4.762,3.8H2285.7a2.185,2.185,0,0,0-2.351-1.849c-1.326-.04-2.351.6-2.351,1.949,0,3.155,7.4,1.186,7.4,6.289,0,2.09-1.708,4.1-4.823,4.1" transform="translate(-2000.19 -433.004)" fill="#b58f3c"/>
        <path id="Path_558" data-name="Path 558" d="M2389.609,502.618h-6.571v6.109h-2.291V494.761h2.291v5.988h6.571v-5.988h2.291v13.965h-2.291Z" transform="translate(-2089.831 -434.303)" fill="#b58f3c"/>
        <path id="Path_559" data-name="Path 559" d="M2497.564,507.567a7.144,7.144,0,1,1,7.133-7.154,6.991,6.991,0,0,1-7.133,7.154m0-1.989c2.773,0,4.782-2.009,4.782-5.164s-2.01-5.124-4.782-5.124-4.783,1.969-4.783,5.124,2.01,5.164,4.783,5.164" transform="translate(-2186.111 -433.003)" fill="#b58f3c"/>
        <path id="Path_560" data-name="Path 560" d="M2630.427,503.06H2627.9v5.667H2625.6V494.761h4.823c3.315,0,4.943,1.889,4.943,4.159,0,1.989-1.306,4.139-4.943,4.139m0-1.869c1.788,0,2.592-.864,2.592-2.271,0-1.447-.8-2.291-2.592-2.291H2627.9v4.561Z" transform="translate(-2304.768 -434.303)" fill="#b58f3c"/>
      </g>
    </g>
  </g>
</svg>
