<svg id="logo-white" xmlns="http://www.w3.org/2000/svg" xmlns:xlink="http://www.w3.org/1999/xlink" width="234.734" height="119.829" viewBox="0 0 234.734 119.829">
  <defs>
    <clipPath id="clip-path">
      <rect id="Rectangle_122" data-name="Rectangle 122" width="234.734" height="119.829" fill="#fff"/>
    </clipPath>
  </defs>
  <path id="Path_222" data-name="Path 222" d="M570.494,0l4.246,23.225h3.922L575.12,3.858h19.7l3.542,19.367h3.921L598.039,0Z" transform="translate(-467.419 0)" fill="#fff"/>
  <path id="Path_223" data-name="Path 223" d="M404.035,91.071l-14.043,76.823h28.086Z" transform="translate(-319.529 -74.617)" fill="#fff"/>
  <path id="Path_224" data-name="Path 224" d="M524.379,113.49l19.634-.875.665-21.545H496.752Z" transform="translate(-407 -74.616)" fill="#fff"/>
  <path id="Path_225" data-name="Path 225" d="M779.574,113.292l15.4,7.744L789.5,91.071h-9.239Z" transform="translate(-638.723 -74.616)" fill="#fff"/>
  <path id="Path_226" data-name="Path 226" d="M533.831,269.723l8.8-26.183L523.607,250.4l5.76,31.512Z" transform="translate(-429.003 -199.538)" fill="#fff"/>
  <path id="Path_227" data-name="Path 227" d="M517.107,135.116l-23.795-19.309,4.771,26.1Z" transform="translate(-404.182 -94.883)" fill="#fff"/>
  <path id="Path_228" data-name="Path 228" d="M780.926,238.619l2.12,25.192L804.1,285.782l-7.148-39.105Z" transform="translate(-639.831 -195.506)" fill="#fff"/>
  <path id="Path_229" data-name="Path 229" d="M568.928,408.662l-5.867,16.026.624,3.416h34.407Z" transform="translate(-461.329 -334.826)" fill="#fff"/>
  <path id="Path_230" data-name="Path 230" d="M633.037,231.645l-18.984.847-8.776,26.1,29.9-1.484Z" transform="translate(-495.917 -189.792)" fill="#fff"/>
  <g id="Group_3675" data-name="Group 3675">
    <g id="Group_3674" data-name="Group 3674" clip-path="url(#clip-path)">
      <path id="Path_231" data-name="Path 231" d="M4.215,589.767c2.551,0,3.782,1.285,3.782,3.591v2.187c0,2.446-1.353,3.764-4.007,3.764a7.052,7.052,0,0,1-1.37-.156v3.071c0,.486-.156.642-.625.642H.642c-.486,0-.642-.156-.642-.642V591.312a.884.884,0,0,1,.694-1.006,9.831,9.831,0,0,1,3.521-.538m1.145,3.609c0-.85-.486-1.266-1.458-1.266a5.583,5.583,0,0,0-1.2.121.114.114,0,0,0-.086.121v4.511a7.6,7.6,0,0,0,1.162.1c1.058,0,1.578-.469,1.578-1.422Z" transform="translate(0 -483.21)" fill="#fff"/>
      <path id="Path_232" data-name="Path 232" d="M58.874,589.767c.468,0,.642.156.642.642v1.075c0,.468-.174.625-.642.625h-.642a5.274,5.274,0,0,0-1.231.121.114.114,0,0,0-.1.121v6.055c0,.486-.156.642-.625.642H54.919c-.486,0-.642-.156-.642-.642v-7.095a.883.883,0,0,1,.694-1.006,10.356,10.356,0,0,1,3.331-.538Z" transform="translate(-44.47 -483.21)" fill="#fff"/>
      <path id="Path_233" data-name="Path 233" d="M91.7,572.1c.919,0,1.231.312,1.231,1.231v.174c0,.919-.312,1.231-1.231,1.231h-.364c-.954,0-1.233-.312-1.233-1.231v-.174c0-.919.278-1.231,1.233-1.231Zm.5,3.452c.468,0,.624.156.624.642v7.737c0,.486-.156.642-.624.642H90.851c-.486,0-.642-.156-.642-.642V576.2c0-.486.156-.642.642-.642Z" transform="translate(-73.825 -468.736)" fill="#fff"/>
      <path id="Path_234" data-name="Path 234" d="M120.955,589.767q3.747,0,3.747,3.591v5.048c0,.486-.156.642-.624.642h-1.353c-.486,0-.642-.156-.642-.642v-4.961c0-.867-.486-1.3-1.474-1.3a4.381,4.381,0,0,0-1.214.156c-.035,0-.052.018-.052.07v6.037c0,.486-.156.642-.642.642h-1.335c-.486,0-.642-.156-.642-.642V591.4a.885.885,0,0,1,.694-1.006,9.217,9.217,0,0,1,3.539-.624" transform="translate(-95.633 -483.21)" fill="#fff"/>
      <path id="Path_235" data-name="Path 235" d="M171.29,579.685c.468,0,.624.156.624.642v1.439h1.613c.468,0,.624.156.624.642v1.041c0,.485-.156.641-.624.641h-1.613v2.915c0,1.3.4,1.613,1.6,1.613.485,0,.641.156.641.659v1.093c0,.5-.156.641-.641.659a4.626,4.626,0,0,1-3.245-.8,4.074,4.074,0,0,1-.971-3.123v-3.019h-.919c-.486,0-.642-.156-.642-.641v-1.041c0-.486.156-.642.642-.642h.919v-1.439c0-.486.173-.642.642-.642Z" transform="translate(-137.428 -474.949)" fill="#fff"/>
      <path id="Path_236" data-name="Path 236" d="M210.576,593.618c0-2.5,1.474-3.851,4.163-3.851,2.759,0,4.181,1.526,4.181,3.661v1.058c0,.572-.3.867-.9.867H213.2v.433c0,.921.52,1.372,1.562,1.372a1.918,1.918,0,0,0,1.647-.694c.3-.416.5-.486,1.006-.226l.85.434a.641.641,0,0,1,.277,1.023c-.676,1.077-1.942,1.614-3.816,1.614-2.846,0-4.146-1.51-4.146-3.851Zm5.708-.433c0-.885-.521-1.336-1.545-1.336s-1.543.451-1.543,1.336v.277h3.088Z" transform="translate(-172.53 -483.21)" fill="#fff"/>
      <path id="Path_237" data-name="Path 237" d="M264.854,577.407c0-2.447,1.285-3.765,3.765-3.765a14.216,14.216,0,0,1,1.6.1v-3.019c0-.485.156-.641.641-.641h1.336c.485,0,.642.156.642.641v10.913c0,.572-.122.728-.694.953a8.8,8.8,0,0,1-3.418.59c-2.585,0-3.869-1.2-3.869-3.591Zm5.362-1.318a7.486,7.486,0,0,0-1.162-.1c-1.058,0-1.58.468-1.58,1.422v2.169c0,.815.538,1.266,1.458,1.266a4.89,4.89,0,0,0,1.232-.122.079.079,0,0,0,.052-.086Z" transform="translate(-217.001 -467.085)" fill="#fff"/>
      <path id="Path_238" data-name="Path 238" d="M319.038,593.446c0-2.342,1.353-3.678,4.129-3.678a3.688,3.688,0,0,1,3.8,2.308c.156.5.035.711-.451.9l-1.11.364c-.5.191-.728.069-.919-.434a1.39,1.39,0,0,0-1.422-.884q-1.406,0-1.405,1.3v2.428q0,1.3,1.405,1.3a1.388,1.388,0,0,0,1.422-.884c.191-.486.416-.572.919-.416l1.129.347c.485.156.641.451.45.919-.641,1.526-1.978,2.29-3.99,2.29-2.637,0-3.955-1.231-3.955-3.678Z" transform="translate(-261.395 -483.211)" fill="#fff"/>
      <path id="Path_239" data-name="Path 239" d="M374.074,589.767c2.585,0,3.869,1.214,3.869,3.661v4.406c0,.607-.139.8-.642,1.006a8.507,8.507,0,0,1-3.279.468,5.046,5.046,0,0,1-3.106-.694,2.628,2.628,0,0,1-.867-2.169c0-2.134,1.129-2.845,4.042-2.845.451,0,.868.017,1.232.035v-.382a1.163,1.163,0,0,0-1.336-1.283,1.678,1.678,0,0,0-1.439.641c-.3.4-.4.469-.885.278l-.954-.4a.6.6,0,0,1-.347-.919c.642-1.2,1.875-1.8,3.713-1.8m1.249,5.864c-.1,0-.33,0-.677-.017s-.607-.017-.78-.017c-.919,0-1.2.294-1.2.832,0,.555.26.85,1.162.85a9.057,9.057,0,0,0,1.37-.069c.087-.018.122-.07.122-.122Z" transform="translate(-303.19 -483.21)" fill="#fff"/>
      <path id="Path_240" data-name="Path 240" d="M429.017,589.767c.468,0,.642.156.642.642v1.075c0,.468-.174.625-.642.625h-.642a5.274,5.274,0,0,0-1.231.121.114.114,0,0,0-.1.121v6.055c0,.486-.156.642-.625.642h-1.352c-.486,0-.642-.156-.642-.642v-7.095a.883.883,0,0,1,.694-1.006,10.356,10.356,0,0,1,3.331-.538Z" transform="translate(-347.737 -483.21)" fill="#fff"/>
      <path id="Path_241" data-name="Path 241" d="M465.327,589.767c.468,0,.642.156.642.642v1.075c0,.468-.174.625-.642.625h-.642a5.273,5.273,0,0,0-1.231.121.114.114,0,0,0-.1.121v6.055c0,.486-.156.642-.625.642h-1.352c-.486,0-.642-.156-.642-.642v-7.095a.883.883,0,0,1,.694-1.006,10.356,10.356,0,0,1,3.331-.538Z" transform="translate(-377.487 -483.21)" fill="#fff"/>
      <path id="Path_242" data-name="Path 242" d="M498.162,572.1c.919,0,1.231.312,1.231,1.231v.174c0,.919-.312,1.231-1.231,1.231H497.8c-.954,0-1.233-.312-1.233-1.231v-.174c0-.919.278-1.231,1.233-1.231Zm.5,3.452c.468,0,.624.156.624.642v7.737c0,.486-.156.642-.624.642h-1.353c-.486,0-.642-.156-.642-.642V576.2c0-.486.156-.642.642-.642Z" transform="translate(-406.847 -468.736)" fill="#fff"/>
      <path id="Path_243" data-name="Path 243" d="M521.736,593.618c0-2.5,1.474-3.851,4.163-3.851,2.759,0,4.181,1.526,4.181,3.661v1.058c0,.572-.3.867-.9.867h-4.822v.433c0,.921.52,1.372,1.562,1.372a1.918,1.918,0,0,0,1.647-.694c.3-.416.5-.486,1.006-.226l.85.434a.641.641,0,0,1,.277,1.023c-.676,1.077-1.942,1.614-3.816,1.614-2.846,0-4.146-1.51-4.146-3.851Zm5.708-.433c0-.885-.521-1.336-1.545-1.336s-1.543.451-1.543,1.336v.277h3.088Z" transform="translate(-427.47 -483.21)" fill="#fff"/>
      <path id="Path_244" data-name="Path 244" d="M581.856,589.767c.468,0,.642.156.642.642v1.075c0,.468-.174.625-.642.625h-.642a5.274,5.274,0,0,0-1.231.121.114.114,0,0,0-.1.121v6.055c0,.486-.156.642-.625.642H577.9c-.486,0-.642-.156-.642-.642v-7.095a.883.883,0,0,1,.694-1.006,10.355,10.355,0,0,1,3.331-.538Z" transform="translate(-472.962 -483.21)" fill="#fff"/>
      <path id="Path_245" data-name="Path 245" d="M615.57,570.086c.469,0,.625.156.625.641v3.089a7.389,7.389,0,0,1,1.63-.174c2.5,0,3.747,1.285,3.747,3.591V579.4c0,2.516-1.353,3.782-4.076,3.782a7.95,7.95,0,0,1-3.279-.572c-.555-.278-.642-.416-.642-.971V570.727c0-.485.156-.641.642-.641Zm3.366,7.165c0-.85-.486-1.266-1.458-1.266a4.714,4.714,0,0,0-1.283.19v4.441a.08.08,0,0,0,.052.087,3.923,3.923,0,0,0,1.11.139c1.058,0,1.578-.486,1.578-1.44Z" transform="translate(-502.717 -467.085)" fill="#fff"/>
      <path id="Path_246" data-name="Path 246" d="M669.762,589.767c2.585,0,3.869,1.214,3.869,3.661v4.406c0,.607-.139.8-.642,1.006a8.506,8.506,0,0,1-3.279.468,5.046,5.046,0,0,1-3.106-.694,2.628,2.628,0,0,1-.867-2.169c0-2.134,1.129-2.845,4.042-2.845.451,0,.868.017,1.232.035v-.382a1.163,1.163,0,0,0-1.336-1.283,1.678,1.678,0,0,0-1.439.641c-.3.4-.4.469-.885.278l-.954-.4a.6.6,0,0,1-.347-.919c.642-1.2,1.875-1.8,3.713-1.8m1.249,5.864c-.1,0-.33,0-.677-.017s-.607-.017-.78-.017c-.919,0-1.2.294-1.2.832,0,.555.26.85,1.162.85a9.059,9.059,0,0,0,1.37-.069c.087-.018.122-.07.122-.122Z" transform="translate(-545.454 -483.21)" fill="#fff"/>
      <path id="Path_247" data-name="Path 247" d="M719.432,593.532c0-2.516,1.354-3.765,4.06-3.765a7.628,7.628,0,0,1,3.279.572c.555.261.642.4.642.973v7.876c0,2.412-1.249,3.851-3.956,3.851-1.786,0-3.036-.538-3.73-1.614a.627.627,0,0,1,.278-1.023l.971-.5c.486-.26.711-.191,1.006.225a1.633,1.633,0,0,0,1.422.659,1.237,1.237,0,0,0,1.388-1.4v-.746a7.33,7.33,0,0,1-1.613.173q-3.748,0-3.748-3.591Zm4.2-1.422c-1.058,0-1.58.468-1.58,1.422V595.2c0,.815.538,1.267,1.458,1.267a6.42,6.42,0,0,0,1.284-.122v-4.007a.1.1,0,0,0-.07-.1,4.669,4.669,0,0,0-1.092-.121" transform="translate(-589.447 -483.21)" fill="#fff"/>
      <path id="Path_248" data-name="Path 248" d="M777.354,589.767c1.908,0,3.193.624,3.852,1.856a.585.585,0,0,1-.347.919l-1.023.434c-.5.19-.59.138-.885-.278a1.738,1.738,0,0,0-1.509-.659c-.85,0-1.283.208-1.283.624,0,.5.416.66,1.682.781,2.516.26,3.678.9,3.678,2.845,0,1.821-1.422,3.019-3.9,3.019-2.1,0-3.436-.694-3.992-2.065a.6.6,0,0,1,.417-.867l1.058-.347c.433-.156.641-.069.85.364s.728.659,1.578.659c.988,0,1.491-.242,1.491-.711,0-.555-.4-.693-1.839-.832a5.582,5.582,0,0,1-2.447-.659,2.313,2.313,0,0,1-1.11-2.187c0-1.751,1.32-2.9,3.73-2.9" transform="translate(-633.797 -483.21)" fill="#fff"/>
      <path id="Path_249" data-name="Path 249" d="M828.271,589.767c1.909,0,3.193.624,3.852,1.856a.585.585,0,0,1-.347.919l-1.023.434c-.5.19-.59.138-.885-.278a1.738,1.738,0,0,0-1.509-.659c-.85,0-1.283.208-1.283.624,0,.5.416.66,1.682.781,2.516.26,3.678.9,3.678,2.845,0,1.821-1.422,3.019-3.9,3.019-2.1,0-3.436-.694-3.992-2.065a.6.6,0,0,1,.417-.867l1.058-.347c.433-.156.641-.069.85.364s.728.659,1.578.659c.988,0,1.491-.242,1.491-.711,0-.555-.4-.693-1.838-.832a5.582,5.582,0,0,1-2.447-.659,2.313,2.313,0,0,1-1.11-2.187c0-1.751,1.32-2.9,3.73-2.9" transform="translate(-675.515 -483.21)" fill="#fff"/>
      <path id="Path_250" data-name="Path 250" d="M878.293,570.086c.485,0,.641.156.641.641v3.037l.243-.035a10.094,10.094,0,0,1,1.37-.087q3.749,0,3.748,3.591v5.049c0,.486-.156.642-.625.642h-1.353c-.485,0-.641-.156-.641-.642V577.32c0-.867-.486-1.3-1.474-1.3a5.6,5.6,0,0,0-1.2.122l-.07.017v6.124c0,.486-.156.642-.641.642h-1.336c-.485,0-.641-.156-.641-.642V570.727c0-.485.156-.641.641-.641Z" transform="translate(-717.985 -467.085)" fill="#fff"/>
      <path id="Path_251" data-name="Path 251" d="M930.21,593.429c0-2.308,1.44-3.661,4.129-3.661,2.706,0,4.146,1.353,4.146,3.661v2.238c0,2.308-1.44,3.643-4.146,3.643-2.689,0-4.129-1.353-4.129-3.643Zm5.656-.035c0-.867-.5-1.3-1.526-1.3q-1.51,0-1.51,1.3v2.289q0,1.3,1.51,1.3c1.023,0,1.526-.433,1.526-1.3Z" transform="translate(-762.143 -483.211)" fill="#fff"/>
      <path id="Path_252" data-name="Path 252" d="M990.237,589.767c2.551,0,3.782,1.285,3.782,3.591v2.187c0,2.446-1.354,3.764-4.007,3.764a7.053,7.053,0,0,1-1.37-.156v3.071c0,.486-.156.642-.625.642h-1.352c-.486,0-.642-.156-.642-.642V591.312a.884.884,0,0,1,.694-1.006,9.831,9.831,0,0,1,3.521-.538m1.146,3.609c0-.85-.486-1.266-1.458-1.266a5.584,5.584,0,0,0-1.2.121.114.114,0,0,0-.086.121v4.511a7.6,7.6,0,0,0,1.162.1c1.058,0,1.578-.469,1.578-1.422Z" transform="translate(-807.871 -483.21)" fill="#fff"/>
      <path id="Path_253" data-name="Path 253" d="M1041.126,625.582c.988,0,1.318.33,1.318,1.318v.33c0,.989-.33,1.3-1.318,1.3h-.3c-.989,0-1.3-.312-1.3-1.3v-.33c0-.988.312-1.318,1.3-1.318Z" transform="translate(-851.71 -512.554)" fill="#fff"/>
      <path id="Path_254" data-name="Path 254" d="M1064.894,593.446c0-2.342,1.353-3.678,4.129-3.678a3.688,3.688,0,0,1,3.8,2.308c.156.5.035.711-.451.9l-1.11.364c-.5.191-.728.069-.919-.434a1.389,1.389,0,0,0-1.422-.884q-1.406,0-1.406,1.3v2.428q0,1.3,1.406,1.3a1.388,1.388,0,0,0,1.422-.884c.191-.486.416-.572.919-.416l1.129.347c.485.156.641.451.45.919-.641,1.526-1.978,2.29-3.99,2.29-2.637,0-3.955-1.231-3.955-3.678Z" transform="translate(-872.492 -483.211)" fill="#fff"/>
      <path id="Path_255" data-name="Path 255" d="M1116.674,593.429c0-2.308,1.441-3.661,4.129-3.661,2.706,0,4.146,1.353,4.146,3.661v2.238c0,2.308-1.441,3.643-4.146,3.643-2.689,0-4.129-1.353-4.129-3.643Zm5.656-.035c0-.867-.5-1.3-1.526-1.3q-1.51,0-1.51,1.3v2.289q0,1.3,1.51,1.3c1.023,0,1.526-.433,1.526-1.3Z" transform="translate(-914.917 -483.211)" fill="#fff"/>
      <path id="Path_256" data-name="Path 256" d="M1173.319,625.582c.988,0,1.318.33,1.318,1.318v.33c0,.989-.33,1.3-1.318,1.3h-.3c-.989,0-1.3-.312-1.3-1.3v-.33c0-.988.312-1.318,1.3-1.318Z" transform="translate(-960.019 -512.554)" fill="#fff"/>
      <path id="Path_257" data-name="Path 257" d="M1205.494,591.206c.468,0,.624.156.624.642v7.009a.872.872,0,0,1-.676,1.006,9.44,9.44,0,0,1-3.557.624q-3.746,0-3.747-3.591v-5.048c0-.486.156-.642.642-.642h1.335c.486,0,.642.156.642.642v4.961c0,.867.485,1.3,1.474,1.3a4.99,4.99,0,0,0,1.146-.121.189.189,0,0,0,.121-.191v-5.951c0-.486.156-.642.642-.642Z" transform="translate(-981.662 -484.389)" fill="#fff"/>
      <path id="Path_258" data-name="Path 258" d="M1261.893,582.143c.3.555.19.78-.434.78h-1.2c-.745,0-.919-.087-1.144-.59l-.92-2.134a1.092,1.092,0,0,0-1.11-.694h-.607v2.759c0,.5-.156.659-.659.659h-1.3c-.5,0-.659-.156-.659-.659V570.744c0-.5.156-.659.659-.659h1.3c.5,0,.659.156.659.659v6.436h.469l1.961-2.758c.294-.469.485-.521,1.231-.521h1.162c.642,0,.8.26.434.763l-2.325,3.175a3.3,3.3,0,0,1,.971,1.249Z" transform="translate(-1027.317 -467.084)" fill="#fff"/>
      <path id="Path_259" data-name="Path 259" d="M672.262,415.769l-21.237-22.161-28,1.393,31.153,20.768Z" transform="translate(-510.459 -322.492)" fill="#fff"/>
    </g>
  </g>
</svg>
