<svg xmlns="http://www.w3.org/2000/svg" width="141.935" height="72.456" viewBox="0 0 141.935 72.456">
  <g id="Group_1" data-name="Group 1" transform="translate(0 0)">
    <path id="Path_222" data-name="Path 222" d="M570.494,0l2.567,14.043h2.372L573.291,2.333H585.2l2.142,11.711h2.371L587.149,0Z" transform="translate(-508.168 0)" fill="#fff"/>
    <path id="Path_223" data-name="Path 223" d="M398.483,91.071l-8.491,46.452h16.982Z" transform="translate(-347.386 -81.122)" fill="#fff"/>
    <path id="Path_224" data-name="Path 224" d="M513.457,104.627l11.872-.529.4-13.027h-28.98Z" transform="translate(-442.482 -81.121)" fill="#ff00f3"/>
    <path id="Path_225" data-name="Path 225" d="M779.573,104.507l9.314,4.682-3.312-18.119h-5.586Z" transform="translate(-694.406 -81.121)" fill="#8dc63f"/>
    <path id="Path_226" data-name="Path 226" d="M529.789,259.372l5.32-15.832-11.5,4.15,3.483,19.054Z" transform="translate(-466.404 -216.934)" fill="#fbb040"/>
    <path id="Path_227" data-name="Path 227" d="M507.7,127.482l-14.388-11.676,2.885,15.78Z" transform="translate(-439.418 -103.155)" fill="#939598"/>
    <path id="Path_228" data-name="Path 228" d="M780.926,238.619l1.282,15.233,12.732,13.285-4.322-23.646Z" transform="translate(-695.611 -212.55)" fill="#00dbff"/>
    <path id="Path_229" data-name="Path 229" d="M566.608,408.662l-3.548,9.69.378,2.065h20.8Z" transform="translate(-501.547 -364.016)" fill="#ff400d"/>
    <path id="Path_230" data-name="Path 230" d="M622.062,231.645l-11.479.512-5.306,15.784,18.079-.9Z" transform="translate(-539.151 -206.338)" fill="#00a79d"/>
    <g id="Group_3675" data-name="Group 3675">
      <g id="Group_3768" data-name="Group 3768">
        <path id="Path_231" data-name="Path 231" d="M2.549,589.767c1.542,0,2.287.777,2.287,2.171v1.322c0,1.479-.818,2.276-2.423,2.276a4.274,4.274,0,0,1-.829-.094V597.3c0,.294-.094.388-.378.388H.388c-.294,0-.388-.094-.388-.388v-6.6a.534.534,0,0,1,.42-.609,5.944,5.944,0,0,1,2.129-.325m.693,2.182c0-.514-.294-.766-.881-.766a3.374,3.374,0,0,0-.724.073.069.069,0,0,0-.052.073v2.728a4.588,4.588,0,0,0,.7.063c.64,0,.954-.284.954-.86Z" transform="translate(0 -525.336)" fill="#fff"/>
        <path id="Path_232" data-name="Path 232" d="M57.057,589.767c.283,0,.388.094.388.388v.65c0,.283-.105.378-.388.378h-.388a3.19,3.19,0,0,0-.745.073.069.069,0,0,0-.063.073v3.661c0,.294-.094.388-.378.388h-.818c-.294,0-.388-.094-.388-.388V590.7a.534.534,0,0,1,.42-.608,6.261,6.261,0,0,1,2.014-.325Z" transform="translate(-48.347 -525.336)" fill="#fff"/>
        <path id="Path_233" data-name="Path 233" d="M91.07,572.1c.556,0,.745.189.745.744v.105c0,.556-.189.745-.745.745h-.22c-.577,0-.745-.189-.745-.745v-.105c0-.556.168-.744.745-.744Zm.3,2.087c.283,0,.377.094.377.388v4.678c0,.294-.094.388-.377.388h-.818c-.294,0-.388-.094-.388-.388v-4.678c0-.294.094-.388.388-.388Z" transform="translate(-80.261 -509.6)" fill="#fff"/>
        <path id="Path_234" data-name="Path 234" d="M119.282,589.767q2.265,0,2.266,2.171v3.053c0,.294-.094.388-.377.388h-.818c-.294,0-.388-.094-.388-.388v-3c0-.524-.294-.787-.891-.787a2.653,2.653,0,0,0-.734.094c-.021,0-.031.011-.031.042v3.65c0,.294-.094.388-.388.388h-.807c-.294,0-.388-.094-.388-.388v-4.238a.535.535,0,0,1,.42-.609,5.573,5.573,0,0,1,2.14-.377" transform="translate(-103.97 -525.336)" fill="#fff"/>
        <path id="Path_235" data-name="Path 235" d="M169.884,579.685c.283,0,.377.094.377.388v.87h.976c.283,0,.377.094.377.388v.63c0,.293-.094.388-.377.388h-.976v1.763c0,.787.241.976.965.976.293,0,.388.094.388.4v.661c0,.3-.094.388-.388.4a2.8,2.8,0,0,1-1.962-.483,2.464,2.464,0,0,1-.587-1.888v-1.825h-.556c-.294,0-.388-.094-.388-.388v-.63c0-.294.094-.388.388-.388h.556v-.87c0-.294.1-.388.388-.388Z" transform="translate(-149.408 -516.355)" fill="#fff"/>
        <path id="Path_236" data-name="Path 236" d="M210.576,592.1c0-1.51.892-2.329,2.517-2.329,1.668,0,2.528.923,2.528,2.214v.64c0,.346-.178.524-.546.524H212.16v.262c0,.557.315.829.944.829a1.16,1.16,0,0,0,1-.42c.179-.252.3-.294.609-.137l.514.263a.388.388,0,0,1,.167.619,2.507,2.507,0,0,1-2.307.976c-1.721,0-2.507-.913-2.507-2.328Zm3.451-.262c0-.535-.315-.808-.934-.808s-.933.273-.933.808V592h1.867Z" transform="translate(-187.571 -525.336)" fill="#fff"/>
        <path id="Path_237" data-name="Path 237" d="M264.854,574.513a2.035,2.035,0,0,1,2.277-2.277,8.571,8.571,0,0,1,.965.063v-1.825c0-.293.094-.388.388-.388h.808c.293,0,.388.094.388.388v6.6c0,.346-.074.44-.42.576a5.322,5.322,0,0,1-2.067.357c-1.563,0-2.34-.724-2.34-2.171Zm3.242-.8a4.522,4.522,0,0,0-.7-.063c-.64,0-.955.283-.955.86v1.311c0,.493.325.766.881.766a2.953,2.953,0,0,0,.745-.074.048.048,0,0,0,.031-.052Z" transform="translate(-235.919 -507.805)" fill="#fff"/>
        <path id="Path_238" data-name="Path 238" d="M319.038,591.992c0-1.416.818-2.224,2.5-2.224a2.23,2.23,0,0,1,2.3,1.4c.094.3.021.43-.273.546l-.671.22c-.3.116-.44.042-.556-.263a.84.84,0,0,0-.86-.535q-.85,0-.85.787v1.468q0,.787.85.786a.839.839,0,0,0,.86-.535c.116-.294.252-.346.556-.252l.682.21c.293.094.388.273.272.556a2.345,2.345,0,0,1-2.413,1.384c-1.594,0-2.391-.745-2.391-2.224Z" transform="translate(-284.184 -525.337)" fill="#fff"/>
        <path id="Path_239" data-name="Path 239" d="M372.483,589.767c1.563,0,2.34.734,2.34,2.214v2.664c0,.367-.084.483-.388.609a5.143,5.143,0,0,1-1.983.283,3.051,3.051,0,0,1-1.878-.42,1.589,1.589,0,0,1-.524-1.311c0-1.29.682-1.72,2.444-1.72.273,0,.525.01.745.021v-.231a.7.7,0,0,0-.808-.776,1.015,1.015,0,0,0-.87.388c-.179.241-.241.284-.535.168l-.577-.241a.362.362,0,0,1-.21-.556,2.31,2.31,0,0,1,2.245-1.091m.755,3.546c-.063,0-.2,0-.41-.01s-.367-.01-.472-.01c-.556,0-.724.178-.724.5s.157.514.7.514a5.482,5.482,0,0,0,.829-.042c.053-.011.074-.042.074-.074Z" transform="translate(-329.622 -525.336)" fill="#fff"/>
        <path id="Path_240" data-name="Path 240" d="M427.2,589.767c.283,0,.388.094.388.388v.65c0,.283-.105.378-.388.378h-.388a3.19,3.19,0,0,0-.745.073.069.069,0,0,0-.063.073v3.661c0,.294-.094.388-.378.388h-.818c-.294,0-.388-.094-.388-.388V590.7a.534.534,0,0,1,.42-.608,6.261,6.261,0,0,1,2.014-.325Z" transform="translate(-378.053 -525.336)" fill="#fff"/>
        <path id="Path_241" data-name="Path 241" d="M463.51,589.767c.283,0,.388.094.388.388v.65c0,.283-.105.378-.388.378h-.388a3.19,3.19,0,0,0-.745.073.069.069,0,0,0-.063.073v3.661c0,.294-.094.388-.378.388h-.818c-.294,0-.388-.094-.388-.388V590.7a.534.534,0,0,1,.42-.608,6.261,6.261,0,0,1,2.014-.325Z" transform="translate(-410.396 -525.336)" fill="#fff"/>
        <path id="Path_242" data-name="Path 242" d="M497.53,572.1c.556,0,.745.189.745.744v.105c0,.556-.189.745-.745.745h-.22c-.577,0-.745-.189-.745-.745v-.105c0-.556.168-.744.745-.744Zm.3,2.087c.283,0,.377.094.377.388v4.678c0,.294-.094.388-.377.388h-.818c-.294,0-.388-.094-.388-.388v-4.678c0-.294.094-.388.388-.388Z" transform="translate(-442.316 -509.6)" fill="#fff"/>
        <path id="Path_243" data-name="Path 243" d="M521.736,592.1c0-1.51.892-2.329,2.517-2.329,1.668,0,2.528.923,2.528,2.214v.64c0,.346-.178.524-.546.524H523.32v.262c0,.557.314.829.944.829a1.16,1.16,0,0,0,1-.42c.179-.252.3-.294.609-.137l.514.263a.388.388,0,0,1,.167.619,2.507,2.507,0,0,1-2.307.976c-1.721,0-2.507-.913-2.507-2.328Zm3.451-.262c0-.535-.315-.808-.934-.808s-.933.273-.933.808V592h1.867Z" transform="translate(-464.737 -525.336)" fill="#fff"/>
        <path id="Path_244" data-name="Path 244" d="M580.039,589.767c.283,0,.388.094.388.388v.65c0,.283-.105.378-.388.378h-.388a3.189,3.189,0,0,0-.745.073.069.069,0,0,0-.063.073v3.661c0,.294-.094.388-.378.388h-.818c-.294,0-.388-.094-.388-.388V590.7a.534.534,0,0,1,.42-.608,6.26,6.26,0,0,1,2.014-.325Z" transform="translate(-514.194 -525.336)" fill="#fff"/>
        <path id="Path_245" data-name="Path 245" d="M614.782,570.086c.284,0,.378.094.378.388v1.868a4.466,4.466,0,0,1,.986-.105,1.983,1.983,0,0,1,2.266,2.171v1.311c0,1.521-.818,2.287-2.465,2.287a4.806,4.806,0,0,1-1.983-.346c-.336-.168-.388-.251-.388-.587v-6.6c0-.293.094-.388.388-.388Zm2.035,4.332c0-.514-.294-.766-.881-.766a2.848,2.848,0,0,0-.776.115v2.685a.048.048,0,0,0,.031.052,2.369,2.369,0,0,0,.671.084c.64,0,.954-.294.954-.871Z" transform="translate(-546.544 -507.805)" fill="#fff"/>
        <path id="Path_246" data-name="Path 246" d="M668.171,589.767c1.563,0,2.339.734,2.339,2.214v2.664c0,.367-.084.483-.388.609a5.143,5.143,0,0,1-1.983.283,3.052,3.052,0,0,1-1.878-.42,1.588,1.588,0,0,1-.524-1.311c0-1.29.682-1.72,2.444-1.72.273,0,.525.01.745.021v-.231a.7.7,0,0,0-.808-.776,1.015,1.015,0,0,0-.87.388c-.179.241-.241.284-.536.168l-.577-.241a.362.362,0,0,1-.21-.556,2.31,2.31,0,0,1,2.245-1.091m.755,3.546c-.063,0-.2,0-.41-.01s-.367-.01-.472-.01c-.556,0-.724.178-.724.5s.157.514.7.514a5.483,5.483,0,0,0,.829-.042c.053-.011.074-.042.074-.074Z" transform="translate(-593.006 -525.336)" fill="#fff"/>
        <path id="Path_247" data-name="Path 247" d="M719.432,592.044c0-1.521.818-2.277,2.455-2.277a4.613,4.613,0,0,1,1.983.346c.336.158.388.241.388.588v4.762a2.108,2.108,0,0,1-2.392,2.329,2.481,2.481,0,0,1-2.255-.976.379.379,0,0,1,.168-.619l.587-.3c.294-.157.43-.115.608.136a.988.988,0,0,0,.86.4.748.748,0,0,0,.84-.849v-.451a4.433,4.433,0,0,1-.976.1q-2.266,0-2.266-2.172Zm2.539-.86c-.64,0-.955.283-.955.86v1.007c0,.493.325.766.881.766a3.876,3.876,0,0,0,.777-.074V591.32a.058.058,0,0,0-.042-.063,2.824,2.824,0,0,0-.66-.073" transform="translate(-640.835 -525.336)" fill="#fff"/>
        <path id="Path_248" data-name="Path 248" d="M775.855,589.767a2.4,2.4,0,0,1,2.329,1.122.354.354,0,0,1-.21.556l-.619.263c-.3.115-.357.083-.535-.168a1.051,1.051,0,0,0-.913-.4c-.514,0-.776.126-.776.377,0,.3.252.4,1.017.473,1.521.157,2.224.546,2.224,1.72,0,1.1-.86,1.825-2.36,1.825-1.27,0-2.078-.42-2.413-1.249a.36.36,0,0,1,.252-.524l.64-.21c.262-.094.388-.042.514.22s.44.4.954.4c.6,0,.9-.146.9-.43,0-.336-.241-.419-1.112-.5a3.376,3.376,0,0,1-1.479-.4,1.4,1.4,0,0,1-.671-1.322c0-1.059.8-1.751,2.256-1.751" transform="translate(-689.051 -525.336)" fill="#fff"/>
        <path id="Path_249" data-name="Path 249" d="M826.772,589.767a2.4,2.4,0,0,1,2.329,1.122.354.354,0,0,1-.21.556l-.619.263c-.3.115-.357.083-.535-.168a1.051,1.051,0,0,0-.913-.4c-.514,0-.776.126-.776.377,0,.3.252.4,1.017.473,1.521.157,2.224.546,2.224,1.72,0,1.1-.86,1.825-2.36,1.825-1.27,0-2.078-.42-2.414-1.249a.36.36,0,0,1,.252-.524l.64-.21c.262-.094.388-.042.514.22s.44.4.954.4c.6,0,.9-.146.9-.43,0-.336-.241-.419-1.112-.5a3.376,3.376,0,0,1-1.48-.4,1.4,1.4,0,0,1-.671-1.322c0-1.059.8-1.751,2.255-1.751" transform="translate(-734.406 -525.336)" fill="#fff"/>
        <path id="Path_250" data-name="Path 250" d="M877.511,570.086c.293,0,.388.094.388.388v1.836l.147-.021a6.081,6.081,0,0,1,.828-.053q2.266,0,2.266,2.171v3.053c0,.294-.094.388-.378.388h-.818c-.293,0-.388-.094-.388-.388v-3c0-.524-.294-.787-.891-.787a3.387,3.387,0,0,0-.724.074l-.042.01v3.7c0,.294-.094.388-.388.388H876.7c-.293,0-.388-.094-.388-.388v-6.987c0-.293.094-.388.388-.388Z" transform="translate(-780.579 -507.805)" fill="#fff"/>
        <path id="Path_251" data-name="Path 251" d="M930.21,591.982c0-1.4.871-2.214,2.5-2.214s2.507.818,2.507,2.214v1.353c0,1.4-.871,2.2-2.507,2.2s-2.5-.818-2.5-2.2Zm3.42-.021c0-.524-.3-.787-.923-.787s-.913.263-.913.787v1.384q0,.788.913.787c.619,0,.923-.262.923-.787Z" transform="translate(-828.586 -525.337)" fill="#fff"/>
        <path id="Path_252" data-name="Path 252" d="M988.571,589.767c1.543,0,2.287.777,2.287,2.171v1.322c0,1.479-.818,2.276-2.423,2.276a4.276,4.276,0,0,1-.829-.094V597.3c0,.294-.094.388-.378.388h-.818c-.294,0-.388-.094-.388-.388v-6.6a.534.534,0,0,1,.42-.609,5.945,5.945,0,0,1,2.129-.325m.693,2.182c0-.514-.294-.766-.881-.766a3.373,3.373,0,0,0-.724.073.069.069,0,0,0-.052.073v2.728a4.589,4.589,0,0,0,.7.063c.64,0,.954-.284.954-.86Z" transform="translate(-878.301 -525.336)" fill="#fff"/>
        <path id="Path_253" data-name="Path 253" d="M1040.494,625.582c.6,0,.8.2.8.8v.2c0,.6-.2.787-.8.787h-.178c-.6,0-.787-.189-.787-.787v-.2c0-.6.189-.8.787-.8Z" transform="translate(-925.962 -557.238)" fill="#00a79d"/>
        <path id="Path_254" data-name="Path 254" d="M1064.894,591.992c0-1.416.818-2.224,2.5-2.224a2.23,2.23,0,0,1,2.3,1.4c.094.3.021.43-.273.546l-.671.22c-.3.116-.44.042-.556-.263a.84.84,0,0,0-.86-.535q-.85,0-.85.787v1.468q0,.787.85.786a.839.839,0,0,0,.86-.535c.116-.294.252-.346.556-.252l.682.21c.293.094.388.273.272.556a2.345,2.345,0,0,1-2.413,1.384c-1.594,0-2.391-.745-2.391-2.224Z" transform="translate(-948.556 -525.337)" fill="#00a79d"/>
        <path id="Path_255" data-name="Path 255" d="M1116.674,591.982c0-1.4.871-2.214,2.5-2.214s2.507.818,2.507,2.214v1.353c0,1.4-.871,2.2-2.507,2.2s-2.5-.818-2.5-2.2Zm3.42-.021c0-.524-.3-.787-.923-.787s-.913.263-.913.787v1.384q0,.788.913.787c.619,0,.923-.262.923-.787Z" transform="translate(-994.679 -525.337)" fill="#00a79d"/>
        <path id="Path_256" data-name="Path 256" d="M1172.687,625.582c.6,0,.8.2.8.8v.2c0,.6-.2.787-.8.787h-.178c-.6,0-.787-.189-.787-.787v-.2c0-.6.189-.8.787-.8Z" transform="translate(-1043.713 -557.238)" fill="#00a79d"/>
        <path id="Path_257" data-name="Path 257" d="M1202.586,591.206c.283,0,.377.094.377.388v4.238a.527.527,0,0,1-.409.608,5.71,5.71,0,0,1-2.151.377q-2.265,0-2.266-2.171v-3.053c0-.294.094-.388.388-.388h.807c.294,0,.388.094.388.388v3c0,.524.293.787.891.787a3.017,3.017,0,0,0,.693-.073.114.114,0,0,0,.073-.116v-3.6c0-.294.094-.388.388-.388Z" transform="translate(-1067.243 -526.618)" fill="#00a79d"/>
        <path id="Path_258" data-name="Path 258" d="M1258.718,577.376c.178.336.115.472-.263.472h-.724c-.45,0-.556-.053-.692-.357l-.556-1.29a.66.66,0,0,0-.671-.42h-.367v1.668c0,.3-.094.4-.4.4h-.786c-.3,0-.4-.094-.4-.4v-6.965c0-.3.094-.4.4-.4h.786c.3,0,.4.094.4.4v3.891h.284l1.186-1.667c.177-.284.293-.315.745-.315h.7c.388,0,.483.157.263.461l-1.406,1.92a1.994,1.994,0,0,1,.587.755Z" transform="translate(-1116.879 -507.804)" fill="#00a79d"/>
        <path id="Path_259" data-name="Path 259" d="M652.8,407.008l-12.841-13.4-16.93.842,18.837,12.558Z" transform="translate(-554.961 -350.607)" fill="#8b5e3c"/>
      </g>
    </g>
  </g>
</svg>
