<svg id="best-seller-ico" xmlns="http://www.w3.org/2000/svg" width="23.311" height="31.6" viewBox="0 0 23.311 31.6">
  <path id="Path_276" data-name="Path 276" d="M11.368,22.383A11.192,11.192,0,1,1,22.559,11.192,11.2,11.2,0,0,1,11.368,22.383m0-21.066a9.875,9.875,0,1,0,9.875,9.875,9.885,9.885,0,0,0-9.875-9.875" transform="translate(0.055)" fill="#fff"/>
  <path id="Path_277" data-name="Path 277" d="M10.1,15.85a5.925,5.925,0,1,1,5.925-5.925A5.932,5.932,0,0,1,10.1,15.85m0-10.533a4.608,4.608,0,1,0,4.608,4.608A4.613,4.613,0,0,0,10.1,5.317" transform="translate(1.322 1.267)" fill="#fff"/>
  <path id="Path_278" data-name="Path 278" d="M6.541,27.079H6.507a.658.658,0,0,1-.581-.423L4.386,22.6l-3.633.521a.658.658,0,0,1-.683-.947l3.95-7.9,1.177.59L1.81,21.64l2.91-.417a.669.669,0,0,1,.71.417l1.2,3.151L10.6,16.907l1.176.6L7.128,26.718a.656.656,0,0,1-.587.361" transform="translate(0 4.52)" fill="#fff"/>
  <path id="Path_279" data-name="Path 279" d="M13.917,27.079a.659.659,0,0,1-.59-.366L8.758,17.5l1.178-.585,3.914,7.893,1.261-3.174a.68.68,0,0,1,.706-.408l2.911.417-3.388-6.774,1.178-.59,3.95,7.9a.664.664,0,0,1-.055.681.684.684,0,0,1-.628.266L16.144,22.6l-1.616,4.064a.661.661,0,0,1-.585.415Z" transform="translate(2.773 4.52)" fill="#fff"/>
</svg>
