<svg xmlns="http://www.w3.org/2000/svg" xmlns:xlink="http://www.w3.org/1999/xlink" width="24" height="24" viewBox="0 0 24 24"><defs><clipPath id="a"><rect width="24" height="24" transform="translate(0.107 0.494)" fill="#fdc144"/></clipPath></defs><g transform="translate(-0.107 -0.494)"><g transform="translate(0 0)"><g transform="translate(0 0)" clip-path="url(#a)"><path d="M24.309,12.154a12.154,12.154,0,1,0-13.167,12.1v.052h2.026v-.052a12.164,12.164,0,0,0,11.142-12.1M13.883,13.674h9.3a11.1,11.1,0,0,1-3.051,6.245Zm-9.7,6.245a11.1,11.1,0,0,1-3.051-6.245h9.3Zm16.431-15a11.08,11.08,0,0,1,2.66,6.727H13.883Zm-7.444,6.011V1.065A11.1,11.1,0,0,1,19.919,4.18Zm-2.742.716H1.038A11.08,11.08,0,0,1,3.7,4.921ZM4.39,4.18a11.1,11.1,0,0,1,6.752-3.116v9.867Zm.531,16.431,6.221-6.221v8.855a11.079,11.079,0,0,1-6.221-2.633m8.247-6.221,6.221,6.221a11.079,11.079,0,0,1-6.221,2.633Z" transform="translate(0.143 0.126)" fill="#fdc144"/></g></g><g transform="translate(0.107 0.494)" fill="none" stroke="#fdc144" stroke-width="1"><circle cx="12" cy="12" r="12" stroke="none"/><circle cx="12" cy="12" r="11.5" fill="none"/></g></g></svg>