<svg id="van-ico" xmlns="http://www.w3.org/2000/svg" width="31.6" height="23.041" viewBox="0 0 31.6 23.041">
  <g id="Group_3780" data-name="Group 3780">
    <path id="Path_289" data-name="Path 289" d="M28.433,19.75H26.458a.658.658,0,0,1,0-1.317h.658V1.317h-15.8V18.433h7.242a.658.658,0,1,1,0,1.317H10V0H28.433Z" transform="translate(3.166)" fill="#fff"/>
    <path id="Path_290" data-name="Path 290" d="M14.483,18.166H11.192a.658.658,0,1,1,0-1.317h1.975V6.317H7.242a.659.659,0,0,0-.658.658v4.608H3.292a1.977,1.977,0,0,0-1.975,1.975V16.85H3.292a.658.658,0,1,1,0,1.317H0V13.558a3.3,3.3,0,0,1,3.292-3.292H5.267V6.975A1.977,1.977,0,0,1,7.242,5h7.242Z" transform="translate(0 1.583)" fill="#fff"/>
    <path id="Path_291" data-name="Path 291" d="M6.45,19.4a3.95,3.95,0,1,1,3.95-3.95A3.955,3.955,0,0,1,6.45,19.4m0-6.583A2.633,2.633,0,1,0,9.083,15.45,2.636,2.636,0,0,0,6.45,12.817" transform="translate(0.792 3.641)" fill="#fff"/>
    <path id="Path_292" data-name="Path 292" d="M20.45,19.4a3.95,3.95,0,1,1,3.95-3.95,3.955,3.955,0,0,1-3.95,3.95m0-6.583a2.633,2.633,0,1,0,2.633,2.633,2.636,2.636,0,0,0-2.633-2.633" transform="translate(5.225 3.641)" fill="#fff"/>
    <path id="Path_293" data-name="Path 293" d="M17.608,11.9a.661.661,0,0,1-.466-.192l-3.95-3.95a.659.659,0,1,1,.932-.932l3.484,3.485,6.117-6.118a.659.659,0,1,1,.932.932l-6.583,6.583a.661.661,0,0,1-.466.192" transform="translate(4.116 1.267)" fill="#fff"/>
  </g>
</svg>
