<svg id="calendar-ico" xmlns="http://www.w3.org/2000/svg" width="30.035" height="30.035" viewBox="0 0 30.035 30.035">
  <g id="Group_3781" data-name="Group 3781">
    <path id="Path_270" data-name="Path 270" d="M10.38,22.263H9.129A3.132,3.132,0,0,1,6,19.135a.626.626,0,1,1,1.251,0,1.879,1.879,0,0,0,1.877,1.877H10.38a1.877,1.877,0,1,0,0-3.754H9.129a.626.626,0,1,1,0-1.251H10.38a1.877,1.877,0,1,0,0-3.754H9.129a1.879,1.879,0,0,0-1.877,1.877.626.626,0,1,1-1.251,0A3.132,3.132,0,0,1,9.129,11H10.38a3.127,3.127,0,0,1,1.875,5.632,3.127,3.127,0,0,1-1.875,5.632" transform="translate(1.509 2.766)" fill="#fff"/>
    <path id="Path_271" data-name="Path 271" d="M28.158,29.281H1.877A1.879,1.879,0,0,1,0,27.4V4.877A1.879,1.879,0,0,1,1.877,3H28.158a1.879,1.879,0,0,1,1.877,1.877V27.4a1.879,1.879,0,0,1-1.877,1.877M1.877,4.251a.627.627,0,0,0-.626.626V27.4a.627.627,0,0,0,.626.626H28.158a.627.627,0,0,0,.626-.626V4.877a.627.627,0,0,0-.626-.626Z" transform="translate(0 0.754)" fill="#fff"/>
    <path id="Path_272" data-name="Path 272" d="M29.409,9.251H.626A.626.626,0,0,1,.626,8H29.409a.626.626,0,0,1,0,1.251" transform="translate(0 2.012)" fill="#fff"/>
    <path id="Path_273" data-name="Path 273" d="M19.626,7.509A.626.626,0,0,1,19,6.883V.626a.626.626,0,0,1,1.251,0V6.883a.626.626,0,0,1-.626.626" transform="translate(4.778)" fill="#fff"/>
    <path id="Path_274" data-name="Path 274" d="M4.626,7.509A.626.626,0,0,1,4,6.883V.626a.626.626,0,0,1,1.251,0V6.883a.626.626,0,0,1-.626.626" transform="translate(1.006)" fill="#fff"/>
    <path id="Path_275" data-name="Path 275" d="M17.129,22.263a.626.626,0,0,1-.626-.626v-8.5l-1.434,1.435a.627.627,0,1,1-.886-.886l2.5-2.5a.626.626,0,0,1,1.069.443V21.638a.626.626,0,0,1-.626.626" transform="translate(3.52 2.766)" fill="#fff"/>
  </g>
</svg>
