<svg xmlns="http://www.w3.org/2000/svg" xmlns:xlink="http://www.w3.org/1999/xlink" width="26.661" height="24.851" viewBox="0 0 26.661 24.851"><defs><clipPath id="a"><rect width="26.661" height="24.851" fill="#fdc144" stroke="#fdc144" stroke-width="0.3"/></clipPath></defs><g transform="translate(0 0)" clip-path="url(#a)"><path d="M13.169,24.851l-.48-.149c-.3-.094-7.488-2.382-10.93-9.085C-.434,11.345-.578,6.273,1.334.543L1.514,0l.5.269c.156.082,15.459,8.462,11.28,24.1ZM2.066,1.417C.436,6.657.62,11.284,2.619,15.177c2.76,5.376,8.228,7.8,9.876,8.432C15.632,10.62,4.592,2.973,2.066,1.417" transform="translate(0 0)" fill="#fdc144" stroke="#fdc144" stroke-width="0.3"/><path d="M13.051,25.123a.484.484,0,0,1-.479-.425c-.011-.086-1.1-8.645-5.935-12.152a.483.483,0,0,1,.567-.782c5.183,3.757,6.283,12.451,6.327,12.819a.483.483,0,0,1-.421.537.411.411,0,0,1-.059,0" transform="translate(-0.22 -0.399)" fill="#fdc144" stroke="#fdc144" stroke-width="0.3"/><path d="M26.3,1.031,26.159.479l-.522.226c-.122.053-9.152,4.079-12.4,12.808.171.512.335,1.083.478,1.708C15.968,7.181,23.451,2.885,25.5,1.844c1.231,5.341.7,9.931-1.594,13.648C20.88,20.407,15.569,22.447,13.6,23.06c.567-2.17,2.5-8.307,6.7-10.86a.483.483,0,0,0-.5-.826c-2.722,1.652-4.525,4.591-5.666,7.182a14.64,14.64,0,0,1-.955,5.631c1.075-.267,7.822-2.146,11.544-8.181,2.518-4.082,3.047-9.121,1.574-14.976" transform="translate(-0.45 -0.017)" fill="#fdc144" stroke="#fdc144" stroke-width="0.3"/></g></svg>