<svg xmlns="http://www.w3.org/2000/svg" width="23.53" height="23.53" viewBox="0 0 23.53 23.53">
  <g id="uk-ico" transform="translate(-0.085 -0.085)">
    <g id="Group_3709" data-name="Group 3709" transform="translate(0 0)">
      <g id="Group_3779" data-name="Group 3779" transform="translate(0 0)">
        <path id="Path_283" data-name="Path 283" d="M23.53,11.765A11.765,11.765,0,1,0,10.785,23.48v.05h1.961v-.05A11.774,11.774,0,0,0,23.53,11.765M13.439,13.236h9a10.748,10.748,0,0,1-2.953,6.045ZM4.046,19.281a10.748,10.748,0,0,1-2.953-6.045h9Zm15.9-14.518a10.725,10.725,0,0,1,2.575,6.512H13.439Zm-7.205,5.819V1.03a10.745,10.745,0,0,1,6.536,3.016Zm-2.654.693H1A10.725,10.725,0,0,1,3.58,4.763ZM4.249,4.046A10.745,10.745,0,0,1,10.785,1.03v9.551Zm.514,15.9,6.022-6.022V22.5a10.724,10.724,0,0,1-6.022-2.549m7.983-6.022,6.022,6.022A10.724,10.724,0,0,1,12.746,22.5Z" transform="translate(0.085 0.085)" fill="#fff"/>
      </g>
    </g>
  </g>
</svg>
