<svg xmlns="http://www.w3.org/2000/svg" xmlns:xlink="http://www.w3.org/1999/xlink" width="33" height="33" viewBox="0 0 33 33"><defs><clipPath id="a"><rect width="33" height="33" transform="translate(-0.396 -0.303)" fill="#fdc144"/></clipPath></defs><g transform="translate(0.396 0.303)"><g transform="translate(0 0)" clip-path="url(#a)"><path d="M10.761,23.242H9.4a3.4,3.4,0,0,1-3.4-3.4.68.68,0,0,1,1.36,0,2.043,2.043,0,0,0,2.04,2.04h1.36a2.04,2.04,0,0,0,0-4.081H9.4a.68.68,0,1,1,0-1.36h1.36a2.04,2.04,0,0,0,0-4.081H9.4A2.043,2.043,0,0,0,7.36,14.4.68.68,0,0,1,6,14.4,3.4,3.4,0,0,1,9.4,11h1.36A3.4,3.4,0,0,1,12.8,17.121a3.4,3.4,0,0,1-2.038,6.121" transform="translate(1.854 4.123)" fill="#fdc144"/><path d="M30.6,31.564H2.04A2.043,2.043,0,0,1,0,29.524V5.04A2.043,2.043,0,0,1,2.04,3H30.6a2.043,2.043,0,0,1,2.04,2.04V29.524a2.043,2.043,0,0,1-2.04,2.04M2.04,4.36a.681.681,0,0,0-.68.68V29.524a.681.681,0,0,0,.68.68H30.6a.681.681,0,0,0,.68-.68V5.04a.681.681,0,0,0-.68-.68Z" transform="translate(-0.307 1.241)" fill="#fdc144"/><path d="M31.965,9.36H.68A.68.68,0,0,1,.68,8H31.965a.68.68,0,0,1,0,1.36" transform="translate(-0.307 3.042)" fill="#fdc144"/><path d="M19.68,8.161a.68.68,0,0,1-.68-.68V.68a.68.68,0,0,1,1.36,0v6.8a.68.68,0,0,1-.68.68" transform="translate(6.537 0.16)" fill="#fdc144"/><path d="M4.68,8.161A.68.68,0,0,1,4,7.481V.68a.68.68,0,0,1,1.36,0v6.8a.68.68,0,0,1-.68.68" transform="translate(1.134 0.16)" fill="#fdc144"/><path d="M17.4,23.242a.68.68,0,0,1-.68-.68v-9.24l-1.559,1.56a.681.681,0,1,1-.963-.963l2.72-2.72a.681.681,0,0,1,1.162.482V22.562a.68.68,0,0,1-.68.68" transform="translate(4.736 4.123)" fill="#fdc144"/></g></g></svg>