<svg xmlns="http://www.w3.org/2000/svg" width="24.083" height="32.645" viewBox="0 0 24.083 32.645"><path d="M11.738,23.124A11.562,11.562,0,1,1,23.3,11.562,11.575,11.575,0,0,1,11.738,23.124m0-21.763a10.2,10.2,0,1,0,10.2,10.2,10.212,10.212,0,0,0-10.2-10.2" transform="translate(0.063)" fill="#fdc144"/><path d="M10.3,16.242a6.121,6.121,0,1,1,6.121-6.121A6.128,6.128,0,0,1,10.3,16.242m0-10.882a4.761,4.761,0,1,0,4.761,4.761A4.766,4.766,0,0,0,10.3,5.36" transform="translate(1.504 1.441)" fill="#fdc144"/><path d="M6.757,27.5H6.722a.68.68,0,0,1-.6-.437L4.531,22.877l-3.753.539a.68.68,0,0,1-.706-.978l4.081-8.161,1.216.609-3.5,7,3.006-.431a.691.691,0,0,1,.733.431l1.235,3.255,4.111-8.145,1.215.615L7.364,27.13a.678.678,0,0,1-.607.373" transform="translate(0 5.142)" fill="#fdc144"/><path d="M14.087,27.5a.681.681,0,0,1-.609-.378L8.758,17.6,9.975,17l4.044,8.154,1.3-3.279a.7.7,0,0,1,.729-.422l3.007.431-3.5-7,1.217-.609,4.081,8.161a.686.686,0,0,1-.057.7.707.707,0,0,1-.649.275l-3.762-.54-1.669,4.2a.683.683,0,0,1-.6.428Z" transform="translate(3.154 5.142)" fill="#fdc144"/></svg>