<svg xmlns="http://www.w3.org/2000/svg" width="26.121" height="24.461" viewBox="0 0 26.121 24.461">
  <g id="eco-ico" transform="translate(0.157 0.217)">
    <g id="Group_3778" data-name="Group 3778" transform="translate(0 0)">
      <path id="Path_219" data-name="Path 219" d="M12.748,24.056l-.465-.144c-.295-.091-7.248-2.306-10.58-8.794C-.42,10.982-.559,6.072,1.291.525L1.466,0l.488.261C2.1.34,16.918,8.452,12.873,23.586ZM2,1.372C.422,6.443.6,10.923,2.536,14.691c2.672,5.2,7.965,7.553,9.56,8.162C15.132,10.279,4.445,2.878,2,1.372" transform="translate(0 0)" fill="#fff" stroke="#fff" stroke-width="0.3"/>
      <path id="Path_220" data-name="Path 220" d="M12.839,24.693a.468.468,0,0,1-.464-.411c-.01-.083-1.061-8.368-5.745-11.763a.468.468,0,0,1,.549-.757C12.2,15.4,13.261,23.813,13.3,24.169a.468.468,0,0,1-.408.52.4.4,0,0,1-.057,0" transform="translate(-0.419 -0.76)" fill="#fff" stroke="#fff" stroke-width="0.3"/>
      <path id="Path_221" data-name="Path 221" d="M25.878,1.013,25.743.479l-.5.219c-.118.051-8.859,3.948-12,12.4.165.5.324,1.048.463,1.653C15.879,6.966,23.122,2.808,25.106,1.8c1.191,5.17.673,9.613-1.543,13.21-2.93,4.758-8.071,6.733-9.977,7.326.549-2.1,2.417-8.041,6.487-10.512a.468.468,0,0,0-.485-.8c-2.635,1.6-4.38,4.444-5.484,6.952a14.171,14.171,0,0,1-.925,5.451c1.041-.258,7.572-2.077,11.174-7.919,2.437-3.951,2.95-8.828,1.524-14.5" transform="translate(-0.858 -0.032)" fill="#fff" stroke="#fff" stroke-width="0.3"/>
    </g>
  </g>
</svg>
