<svg xmlns="http://www.w3.org/2000/svg" width="23" height="24" viewBox="0 0 23 24">
  <g id="biodegradable-ico" transform="translate(-0.417 0.131)">
    <g id="Ellipse_46" data-name="Ellipse 46" transform="translate(0.417 -0.131)" fill="none" stroke="#fff" stroke-width="1.5">
      <ellipse cx="11.5" cy="12" rx="11.5" ry="12" stroke="none"/>
      <ellipse cx="11.5" cy="12" rx="10.75" ry="11.25" fill="none"/>
    </g>
    <g id="Group_3710" data-name="Group 3710" transform="translate(3.395 6.845)">
      <path id="Path_285" data-name="Path 285" d="M157.485,278.093c1.041-.117,1.042-.117,1.262.8a29.943,29.943,0,0,0,.906,3.251c.122-.332.251-.662.364-1q.439-1.3.866-2.6c.092-.281.182-.6.549-.489a.888.888,0,0,1,.5.48c.391,1.065.737,2.146,1.1,3.221.043.126.109.244.239.533.255-1.061.471-1.956.685-2.852.047-.2.09-.4.137-.592.209-.882.21-.882,1.252-.758-.415,1.418-.826,2.827-1.239,4.236a9.307,9.307,0,0,1-.36,1.159c-.077.175-.314.4-.467.392a.742.742,0,0,1-.55-.374c-.361-.946-.665-1.914-.992-2.873-.077-.227-.169-.448-.314-.832-.179.471-.311.793-.424,1.122-.3.882-.577,1.773-.911,2.642a.691.691,0,0,1-.533.316.6.6,0,0,1-.452-.337c-.552-1.8-1.074-3.607-1.615-5.453" transform="translate(-148.432 -275.588)" fill="#fff"/>
      <path id="Path_286" data-name="Path 286" d="M63.083,259.73l-.1-.5c-.081.029-.154.032-.185.07a1.672,1.672,0,0,1-1.931.5,1.73,1.73,0,0,1-1.209-1.667,16.906,16.906,0,0,1,0-2.553,1.725,1.725,0,0,1,1.088-1.627,1.744,1.744,0,0,1,2.007.434,1.536,1.536,0,0,0,.245.146v-2.965h1.016v8.166Zm-.023-2.893-.057,0a7.31,7.31,0,0,0-.01-1.089,1.1,1.1,0,0,0-1.134-.975,1.116,1.116,0,0,0-1.173,1.012,14,14,0,0,0,0,2.182,1.094,1.094,0,0,0,1.141.971,1.067,1.067,0,0,0,1.134-.893,9.665,9.665,0,0,0,.094-1.205" transform="translate(-59.607 -251.564)" fill="#fff"/>
      <path id="Path_287" data-name="Path 287" d="M121.29,306.3c.092-.929.469-1.426,1.113-1.528a1.367,1.367,0,0,1,1.582,1.992,9.6,9.6,0,0,1-.869,1.385c-.126.2-.255.39-.449.685.42.02.715.053,1.009.042.387-.014.477.185.479.527,0,.367-.184.436-.5.431-.747-.013-1.494,0-2.243,0a1.272,1.272,0,0,1,.23-1.285c.425-.543.821-1.109,1.209-1.679a1.528,1.528,0,0,0,.287-.655.556.556,0,0,0-.257-.463c-.142-.054-.485.041-.517.143-.192.6-.625.429-1.076.41" transform="translate(-115.585 -299.827)" fill="#fff"/>
    </g>
  </g>
</svg>
