<svg xmlns="http://www.w3.org/2000/svg" width="25" height="24" viewBox="0 0 25 24"><g transform="translate(0.123 -0.494)"><g transform="translate(-0.123 0.494)" fill="none" stroke="#fdc144" stroke-width="2"><ellipse cx="12.5" cy="12" rx="12.5" ry="12" stroke="none"/><ellipse cx="12.5" cy="12" rx="11.5" ry="11" fill="none"/></g><g transform="translate(3.779 7.109)"><path d="M157.485,278.095c1.076-.12,1.077-.121,1.3.829a30.93,30.93,0,0,0,.936,3.359c.126-.343.259-.684.376-1.031q.454-1.339.894-2.682c.095-.291.188-.623.567-.5a.917.917,0,0,1,.512.5c.4,1.1.761,2.217,1.138,3.327.044.13.112.252.247.55.263-1.1.486-2.021.708-2.946.049-.2.093-.408.141-.612.216-.911.217-.911,1.294-.783-.428,1.465-.854,2.921-1.28,4.376a9.615,9.615,0,0,1-.372,1.2c-.08.181-.325.414-.482.4a.766.766,0,0,1-.568-.386c-.373-.977-.687-1.978-1.025-2.969-.08-.234-.174-.463-.325-.86-.185.486-.322.819-.439,1.159-.312.911-.6,1.832-.942,2.73a.713.713,0,0,1-.55.326.616.616,0,0,1-.466-.348c-.57-1.858-1.109-3.727-1.669-5.633" transform="translate(-148.132 -275.507)" fill="#fdc144"/><path d="M63.2,260l-.106-.516c-.084.03-.159.033-.191.072a1.727,1.727,0,0,1-2,.512,1.788,1.788,0,0,1-1.249-1.722,17.466,17.466,0,0,1,0-2.637,1.782,1.782,0,0,1,1.124-1.681,1.8,1.8,0,0,1,2.073.448,1.585,1.585,0,0,0,.253.151v-3.063h1.05V260Zm-.024-2.989-.059,0a7.551,7.551,0,0,0-.01-1.125,1.134,1.134,0,0,0-1.172-1.008,1.153,1.153,0,0,0-1.211,1.045,14.463,14.463,0,0,0,0,2.255,1.13,1.13,0,0,0,1.179,1,1.1,1.1,0,0,0,1.171-.923,9.985,9.985,0,0,0,.1-1.245" transform="translate(-59.607 -251.564)" fill="#fdc144"/><path d="M121.29,306.354c.1-.959.484-1.473,1.15-1.579a1.412,1.412,0,0,1,1.634,2.058,9.916,9.916,0,0,1-.9,1.431c-.13.2-.264.4-.464.708.433.02.739.055,1.042.044.4-.014.493.191.495.544,0,.379-.19.45-.514.445-.771-.013-1.543,0-2.317,0a1.314,1.314,0,0,1,.238-1.328c.439-.561.848-1.146,1.249-1.735a1.578,1.578,0,0,0,.3-.677.575.575,0,0,0-.265-.479c-.147-.055-.5.043-.534.147-.2.618-.646.443-1.112.424" transform="translate(-115.396 -299.665)" fill="#fdc144"/></g></g></svg>